<svg width="16" height="16" viewBox="0 0 16 16" fill="none" xmlns="http://www.w3.org/2000/svg">
<path d="M5.57076 13.2229C0.909047 9.816 5.05305 3.00114 7.12505 2.02743C8.78219 1.24914 10.2325 2.02743 10.7502 2.51429C12.7079 4.35314 10.5673 6.35429 11.6039 7.81486C14.7902 11.5749 10.0748 16.5143 5.57076 13.2229Z" stroke="#14AE5C" stroke-linecap="round" stroke-linejoin="round"/>
<path d="M8.60604 1.69824V0.619385M6.79462 2.22167L6.19119 1.32796M5.47576 3.54853L4.56147 2.9771M4.35119 5.38053L3.37633 4.91881M3.64947 7.35996L2.59119 7.15196M3.4449 9.27081L2.36719 9.30167M3.86662 11.1714L2.87462 11.5931M4.9649 12.7222L4.21404 13.496M6.65176 13.8571L6.15576 14.8148M8.60604 15.3805V14.3017M10.6598 14.9737L10.1935 14.0011M12.4312 13.728L11.6712 12.9622M13.6346 11.4194L12.5798 11.1908M13.4369 8.8571L12.43 9.24567M12.3809 6.96567L11.3752 7.35424M12.6472 5.03539L11.5752 4.9131M12.3352 2.8411L11.3363 3.24796M10.7546 1.19424L10.1478 2.08567M7.17976 10.5794C7.17976 10.9519 7.32774 11.3092 7.59115 11.5726C7.85456 11.836 8.21181 11.984 8.58433 11.984C8.95685 11.984 9.3141 11.836 9.57751 11.5726C9.84092 11.3092 9.9889 10.9519 9.9889 10.5794C9.9889 10.2069 9.84092 9.84961 9.57751 9.5862C9.3141 9.3228 8.95685 9.17481 8.58433 9.17481C8.21181 9.17481 7.85456 9.3228 7.59115 9.5862C7.32774 9.84961 7.17976 10.2069 7.17976 10.5794ZM7.18204 5.15081C7.18204 5.45543 7.30305 5.74758 7.51845 5.96298C7.73385 6.17838 8.026 6.29939 8.33062 6.29939C8.63524 6.29939 8.92738 6.17838 9.14278 5.96298C9.35818 5.74758 9.47919 5.45543 9.47919 5.15081C9.47919 4.84619 9.35818 4.55405 9.14278 4.33865C8.92738 4.12325 8.63524 4.00224 8.33062 4.00224C8.026 4.00224 7.73385 4.12325 7.51845 4.33865C7.30305 4.55405 7.18204 4.84619 7.18204 5.15081ZM5.88833 8.26853C5.81255 8.26853 5.73988 8.23843 5.6863 8.18484C5.63272 8.13126 5.60262 8.05859 5.60262 7.98281C5.60262 7.90704 5.63272 7.83437 5.6863 7.78078C5.73988 7.7272 5.81255 7.6971 5.88833 7.6971C5.96411 7.6971 6.03678 7.7272 6.09036 7.78078C6.14394 7.83437 6.17404 7.90704 6.17404 7.98281C6.17404 8.05859 6.14394 8.13126 6.09036 8.18484C6.03678 8.23843 5.96411 8.26853 5.88833 8.26853Z" stroke="#14AE5C" stroke-linecap="round" stroke-linejoin="round"/>
</svg>
