<svg width="16" height="16" viewBox="0 0 16 16" fill="none" xmlns="http://www.w3.org/2000/svg">
<path d="M2 10V11H4.293L1 14.293L1.707 15L5 11.707V14H6V10H2Z" fill="#006FCC"/>
<path d="M10 6.835V2H11V1H5.00004V2H6.00004V6.835L4.79004 8.5H6.02854L7.00004 7.165V2H9.00004V7.165L12.805 12.395C12.8835 12.5019 12.9401 12.6233 12.9715 12.7521C13.0029 12.8809 13.0086 13.0147 12.9881 13.1457C12.9677 13.2768 12.9215 13.4024 12.8524 13.5156C12.7832 13.6287 12.6923 13.7271 12.585 13.805C12.4121 13.9308 12.2039 13.999 11.99 14H7.50004V15H11.99C12.3608 15.0005 12.7244 14.8983 13.0406 14.7048C13.3568 14.5113 13.6133 14.2341 13.7816 13.9037C13.9498 13.5734 14.0233 13.2029 13.994 12.8333C13.9646 12.4638 13.8334 12.1096 13.615 11.81L10 6.835Z" fill="#006FCC"/>
</svg>
