<svg width="16" height="16" viewBox="0 0 16 16" fill="none" xmlns="http://www.w3.org/2000/svg">
<g clip-path="url(#clip0_1666_1002)">
<path d="M11.5426 4.45725C12.7769 4.98471 14.1651 5.02554 15.4283 4.57154M4.57115 15.4287C5.02475 14.1615 4.98394 12.7699 4.45687 11.5315C4.04432 10.5455 3.9327 9.45941 4.13606 8.41005C4.33943 7.36069 4.84868 6.39495 5.59973 5.6344C6.36963 4.87245 7.34788 4.35549 8.41115 4.14868" stroke="#F6AD55" stroke-linecap="round" stroke-linejoin="round"/>
<path d="M7.54272 11.8515C8.61139 11.6437 9.59403 11.1225 10.3656 10.3544M10.3656 10.3544C11.1179 9.59465 11.6281 8.62886 11.8315 7.57917C12.0349 6.52948 11.9225 5.44304 11.5084 4.45725C10.9921 3.21857 10.9635 1.83041 11.4284 0.571533M10.3656 10.3544L5.64558 5.63439M0.571289 11.4287C1.83501 10.9725 3.22541 11.0175 4.457 11.5544" stroke="#F6AD55" stroke-linecap="round" stroke-linejoin="round"/>
</g>
<defs>
<clipPath id="clip0_1666_1002">
<rect width="16" height="16" fill="white"/>
</clipPath>
</defs>
</svg>
