<svg width="70" height="67" viewBox="0 0 70 67" fill="none" xmlns="http://www.w3.org/2000/svg">
<g filter="url(#filter0_d_1666_1429)">
<rect x="6" y="2.5" width="58" height="55" rx="12" fill="#006FCC"/>
</g>
<path d="M21.583 29.5001C21.583 24.6292 21.583 22.1931 23.0968 20.6806C24.6107 19.168 27.0455 19.1667 31.9163 19.1667H37.083C41.9539 19.1667 44.39 19.1667 45.9025 20.6806C47.415 22.1944 47.4163 24.6292 47.4163 29.5001V32.0834C47.4163 36.9543 47.4163 39.3904 45.9025 40.9029C44.3887 42.4155 41.9539 42.4167 37.083 42.4167H31.9163C27.0455 42.4167 24.6094 42.4167 23.0968 40.9029C21.5843 39.3891 21.583 36.9543 21.583 32.0834V29.5001Z" stroke="white" stroke-width="1.9375"/>
<path d="M28.041 19.1667V17.2292M40.9577 19.1667V17.2292M22.2285 25.6251H46.7702" stroke="white" stroke-width="1.9375" stroke-linecap="round"/>
<path d="M42.25 35.9583C42.25 36.3009 42.1139 36.6294 41.8717 36.8717C41.6294 37.1139 41.3009 37.25 40.9583 37.25C40.6158 37.25 40.2872 37.1139 40.045 36.8717C39.8028 36.6294 39.6667 36.3009 39.6667 35.9583C39.6667 35.6158 39.8028 35.2872 40.045 35.045C40.2872 34.8028 40.6158 34.6667 40.9583 34.6667C41.3009 34.6667 41.6294 34.8028 41.8717 35.045C42.1139 35.2872 42.25 35.6158 42.25 35.9583ZM42.25 30.7917C42.25 31.1342 42.1139 31.4628 41.8717 31.705C41.6294 31.9472 41.3009 32.0833 40.9583 32.0833C40.6158 32.0833 40.2872 31.9472 40.045 31.705C39.8028 31.4628 39.6667 31.1342 39.6667 30.7917C39.6667 30.4491 39.8028 30.1206 40.045 29.8783C40.2872 29.6361 40.6158 29.5 40.9583 29.5C41.3009 29.5 41.6294 29.6361 41.8717 29.8783C42.1139 30.1206 42.25 30.4491 42.25 30.7917ZM35.7917 35.9583C35.7917 36.3009 35.6556 36.6294 35.4133 36.8717C35.1711 37.1139 34.8426 37.25 34.5 37.25C34.1574 37.25 33.8289 37.1139 33.5867 36.8717C33.3444 36.6294 33.2083 36.3009 33.2083 35.9583C33.2083 35.6158 33.3444 35.2872 33.5867 35.045C33.8289 34.8028 34.1574 34.6667 34.5 34.6667C34.8426 34.6667 35.1711 34.8028 35.4133 35.045C35.6556 35.2872 35.7917 35.6158 35.7917 35.9583ZM35.7917 30.7917C35.7917 31.1342 35.6556 31.4628 35.4133 31.705C35.1711 31.9472 34.8426 32.0833 34.5 32.0833C34.1574 32.0833 33.8289 31.9472 33.5867 31.705C33.3444 31.4628 33.2083 31.1342 33.2083 30.7917C33.2083 30.4491 33.3444 30.1206 33.5867 29.8783C33.8289 29.6361 34.1574 29.5 34.5 29.5C34.8426 29.5 35.1711 29.6361 35.4133 29.8783C35.6556 30.1206 35.7917 30.4491 35.7917 30.7917ZM29.3333 35.9583C29.3333 36.3009 29.1972 36.6294 28.955 36.8717C28.7128 37.1139 28.3842 37.25 28.0417 37.25C27.6991 37.25 27.3706 37.1139 27.1283 36.8717C26.8861 36.6294 26.75 36.3009 26.75 35.9583C26.75 35.6158 26.8861 35.2872 27.1283 35.045C27.3706 34.8028 27.6991 34.6667 28.0417 34.6667C28.3842 34.6667 28.7128 34.8028 28.955 35.045C29.1972 35.2872 29.3333 35.6158 29.3333 35.9583ZM29.3333 30.7917C29.3333 31.1342 29.1972 31.4628 28.955 31.705C28.7128 31.9472 28.3842 32.0833 28.0417 32.0833C27.6991 32.0833 27.3706 31.9472 27.1283 31.705C26.8861 31.4628 26.75 31.1342 26.75 30.7917C26.75 30.4491 26.8861 30.1206 27.1283 29.8783C27.3706 29.6361 27.6991 29.5 28.0417 29.5C28.3842 29.5 28.7128 29.6361 28.955 29.8783C29.1972 30.1206 29.3333 30.4491 29.3333 30.7917Z" fill="white"/>
<defs>
<filter id="filter0_d_1666_1429" x="0.5" y="0.5" width="69" height="66" filterUnits="userSpaceOnUse" color-interpolation-filters="sRGB">
<feFlood flood-opacity="0" result="BackgroundImageFix"/>
<feColorMatrix in="SourceAlpha" type="matrix" values="0 0 0 0 0 0 0 0 0 0 0 0 0 0 0 0 0 0 127 0" result="hardAlpha"/>
<feOffset dy="3.5"/>
<feGaussianBlur stdDeviation="2.75"/>
<feColorMatrix type="matrix" values="0 0 0 0 0 0 0 0 0 0 0 0 0 0 0 0 0 0 0.02 0"/>
<feBlend mode="normal" in2="BackgroundImageFix" result="effect1_dropShadow_1666_1429"/>
<feBlend mode="normal" in="SourceGraphic" in2="effect1_dropShadow_1666_1429" result="shape"/>
</filter>
</defs>
</svg>
