<svg width="18" height="17" viewBox="0 0 18 17" fill="none" xmlns="http://www.w3.org/2000/svg">
<path d="M9 1.5C8.75377 1.5 8.50995 1.5485 8.28247 1.64273C8.05498 1.73695 7.84828 1.87506 7.67417 2.04917C7.50006 2.22328 7.36195 2.42998 7.26773 2.65747C7.1735 2.88495 7.125 3.12877 7.125 3.375C7.125 3.62123 7.1735 3.86505 7.26773 4.09253C7.36195 4.32002 7.50006 4.52672 7.67417 4.70083C7.84828 4.87494 8.05498 5.01305 8.28247 5.10727C8.50995 5.2015 8.75377 5.25 9 5.25C9.49728 5.25 9.97419 5.05246 10.3258 4.70083C10.6775 4.34919 10.875 3.87228 10.875 3.375C10.875 2.87772 10.6775 2.40081 10.3258 2.04917C9.97419 1.69754 9.49728 1.5 9 1.5ZM5.875 3.375C5.875 2.5462 6.20424 1.75134 6.79029 1.16529C7.37634 0.57924 8.1712 0.25 9 0.25C9.8288 0.25 10.6237 0.57924 11.2097 1.16529C11.7958 1.75134 12.125 2.5462 12.125 3.375C12.125 4.2038 11.7958 4.99866 11.2097 5.58471C10.6237 6.17076 9.8288 6.5 9 6.5C8.1712 6.5 7.37634 6.17076 6.79029 5.58471C6.20424 4.99866 5.875 4.2038 5.875 3.375ZM4 9.625C4.00083 9.39667 4.02417 9.17583 4.07 8.9625L1.64 9.6125C1.40212 9.67631 1.17914 9.78636 0.983794 9.93637C0.788453 10.0864 0.624579 10.2734 0.501534 10.4868C0.37849 10.7001 0.298685 10.9356 0.266679 11.1798C0.234672 11.424 0.251092 11.6721 0.315 11.91L0.8 13.7213C0.930396 14.2073 1.15727 14.662 1.4671 15.0585C1.77694 15.455 2.1634 15.7851 2.60347 16.0291C3.04354 16.2731 3.52822 16.426 4.02863 16.4788C4.52905 16.5316 5.03496 16.4831 5.51625 16.3363C5.18194 16.012 4.89458 15.6426 4.6625 15.2388C4.07365 15.2956 3.48372 15.1418 2.99759 14.8046C2.51147 14.4675 2.16065 13.9689 2.0075 13.3975L1.52125 11.585C1.47851 11.4249 1.50111 11.2543 1.58409 11.1109C1.66708 10.9674 1.80364 10.8628 1.96375 10.82L4 10.275V9.625ZM12.6075 16.3725L12.4825 16.3375C12.8162 16.0125 13.105 15.6438 13.3375 15.2388C13.9264 15.2956 14.5163 15.1418 15.0024 14.8046C15.4885 14.4675 15.8394 13.9689 15.9925 13.3975L16.4775 11.585C16.5203 11.425 16.4979 11.2547 16.4151 11.1112C16.3324 10.9678 16.1961 10.8631 16.0362 10.82L14 10.275V9.625C13.9992 9.39667 13.9758 9.17583 13.93 8.9625L16.3587 9.6125C16.5967 9.67618 16.8199 9.78613 17.0153 9.93608C17.2108 10.086 17.3748 10.273 17.498 10.4864C17.6212 10.6998 17.7011 10.9353 17.7332 11.1796C17.7653 11.4239 17.7489 11.6721 17.685 11.91L17.2 13.7213C16.9422 14.6816 16.3136 15.5002 15.4524 15.9971C14.5912 16.4941 13.5679 16.6299 12.6075 16.3725ZM1.5 5.25C1.5 4.91848 1.6317 4.60054 1.86612 4.36612C2.10054 4.1317 2.41848 4 2.75 4C3.08152 4 3.39946 4.1317 3.63388 4.36612C3.8683 4.60054 4 4.91848 4 5.25C4 5.58152 3.8683 5.89946 3.63388 6.13388C3.39946 6.3683 3.08152 6.5 2.75 6.5C2.41848 6.5 2.10054 6.3683 1.86612 6.13388C1.6317 5.89946 1.5 5.58152 1.5 5.25ZM2.75 2.75C2.08696 2.75 1.45107 3.01339 0.982233 3.48223C0.513392 3.95107 0.25 4.58696 0.25 5.25C0.25 5.91304 0.513392 6.54893 0.982233 7.01777C1.45107 7.48661 2.08696 7.75 2.75 7.75C3.41304 7.75 4.04893 7.48661 4.51777 7.01777C4.98661 6.54893 5.25 5.91304 5.25 5.25C5.25 4.58696 4.98661 3.95107 4.51777 3.48223C4.04893 3.01339 3.41304 2.75 2.75 2.75ZM15.25 4C14.9185 4 14.6005 4.1317 14.3661 4.36612C14.1317 4.60054 14 4.91848 14 5.25C14 5.58152 14.1317 5.89946 14.3661 6.13388C14.6005 6.3683 14.9185 6.5 15.25 6.5C15.5815 6.5 15.8995 6.3683 16.1339 6.13388C16.3683 5.89946 16.5 5.58152 16.5 5.25C16.5 4.91848 16.3683 4.60054 16.1339 4.36612C15.8995 4.1317 15.5815 4 15.25 4ZM12.75 5.25C12.75 4.58696 13.0134 3.95107 13.4822 3.48223C13.9511 3.01339 14.587 2.75 15.25 2.75C15.913 2.75 16.5489 3.01339 17.0178 3.48223C17.4866 3.95107 17.75 4.58696 17.75 5.25C17.75 5.91304 17.4866 6.54893 17.0178 7.01777C16.5489 7.48661 15.913 7.75 15.25 7.75C14.587 7.75 13.9511 7.48661 13.4822 7.01777C13.0134 6.54893 12.75 5.91304 12.75 5.25ZM7.125 7.75C6.62772 7.75 6.15081 7.94754 5.79917 8.29917C5.44754 8.65081 5.25 9.12772 5.25 9.625V12.75C5.25 13.7446 5.64509 14.6984 6.34835 15.4017C7.05161 16.1049 8.00544 16.5 9 16.5C9.99456 16.5 10.9484 16.1049 11.6517 15.4017C12.3549 14.6984 12.75 13.7446 12.75 12.75V9.625C12.75 9.12772 12.5525 8.65081 12.2008 8.29917C11.8492 7.94754 11.3723 7.75 10.875 7.75H7.125ZM6.5 9.625C6.5 9.45924 6.56585 9.30027 6.68306 9.18306C6.80027 9.06585 6.95924 9 7.125 9H10.875C11.0408 9 11.1997 9.06585 11.3169 9.18306C11.4342 9.30027 11.5 9.45924 11.5 9.625V12.75C11.5 13.413 11.2366 14.0489 10.7678 14.5178C10.2989 14.9866 9.66304 15.25 9 15.25C8.33696 15.25 7.70107 14.9866 7.23223 14.5178C6.76339 14.0489 6.5 13.413 6.5 12.75V9.625Z" fill="#7E7E7E"/>
</svg>
