<svg width="20" height="20" viewBox="0 0 20 20" fill="none" xmlns="http://www.w3.org/2000/svg">
<path d="M10 1.05469C9.71875 1.05469 9.42969 1.09414 9.25 1.15391C9.17188 1.18086 9.125 1.21016 9.10156 1.22617V6.60938C9.40234 6.60547 9.69922 6.60156 10 6.60156C10.3008 6.60156 10.5977 6.60547 10.8984 6.60938V1.22617C10.875 1.21016 10.8281 1.18086 10.75 1.15391C10.5703 1.09414 10.2812 1.05469 10 1.05469ZM8.39844 1.78789C7.26172 2.17148 6.23828 2.95625 5.41797 4.03906C4.80469 4.84766 4.30469 5.82813 3.96875 6.91797C5.54688 6.76562 6.98828 6.66797 8.39844 6.625V1.78789ZM11.6016 1.78789V6.625C13.0117 6.66797 14.4531 6.76562 16.0312 6.91797C15.6953 5.82813 15.1953 4.84766 14.582 4.03906C13.7617 2.95625 12.7383 2.17148 11.6016 1.78789ZM10 7.30469C7.67188 7.30469 5.34375 7.46094 2.53867 7.76953L2.51953 7.77344H2.5C2.47578 7.77344 2.4457 7.77734 2.36953 7.875C2.29297 7.97656 2.20469 8.16406 2.13398 8.40234C1.99297 8.87891 1.91406 9.55859 1.91406 10.2344C1.91406 10.9102 1.99297 11.5898 2.13398 12.0664C2.20469 12.3047 2.29297 12.4922 2.36953 12.5938C2.4457 12.6914 2.47578 12.6953 2.5 12.6953C6.83984 12.6953 8.04688 12.0703 10 12.0703C11.9531 12.0703 13.1602 12.6953 17.5 12.6953C17.5234 12.6953 17.5547 12.6914 17.6289 12.5938C17.707 12.4922 17.7969 12.3047 17.8672 12.0664C18.0078 11.5898 18.0859 10.9102 18.0859 10.2344C18.0859 9.55859 18.0078 8.87891 17.8672 8.40234C17.7969 8.16406 17.707 7.97656 17.6289 7.875C17.5547 7.77734 17.5234 7.77344 17.5 7.77344H17.4805L17.4609 7.76953C14.6562 7.46094 12.3281 7.30469 10 7.30469ZM3.4375 8.63281C3.8 8.63281 4.10156 8.93359 4.10156 9.29688C4.10156 9.66016 3.8 9.96094 3.4375 9.96094C3.075 9.96094 2.77344 9.66016 2.77344 9.29688C2.77344 8.93359 3.075 8.63281 3.4375 8.63281ZM10 12.7734C8.41016 12.7734 7.21484 13.2617 3.91406 13.375C4.25391 14.5352 4.76953 15.5742 5.41797 16.4297C6.60938 18 8.22656 18.9453 10 18.9453C11.7734 18.9453 13.3906 18 14.582 16.4297C15.2305 15.5742 15.7461 14.5352 16.0859 13.375C12.7852 13.2617 11.5898 12.7734 10 12.7734ZM18.0664 13.1562C17.9141 13.2969 17.7227 13.3984 17.5 13.3984H17.4023C17.4414 13.5547 17.4805 13.7227 17.5195 13.8984C17.6914 14.6641 17.832 15.5977 17.7773 16.1328C17.7266 16.5977 17.4258 17.2227 17.1367 17.8477C16.8438 18.4766 16.5703 18.9688 16.5703 18.9688L17.1797 19.3125C17.1797 19.3125 17.4688 18.8008 17.7734 18.1445C18.0781 17.4883 18.4023 16.8633 18.4727 16.2109C18.5547 15.4844 18.3828 14.543 18.207 13.7461C18.1602 13.5352 18.1133 13.3359 18.0664 13.1562ZM8.75 13.6328H11.25V14.3359H8.75V13.6328ZM7.5 15.8203H12.5V16.5234H7.5V15.8203Z" fill="#7E7E7E"/>
</svg>
