<svg width="16" height="16" viewBox="0 0 16 16" fill="none" xmlns="http://www.w3.org/2000/svg">
<path d="M9.99968 14.6666C9.81079 14.6666 9.65257 14.6026 9.52501 14.4746C9.39746 14.3466 9.33346 14.1884 9.33301 13.9999V13.2833C9.07746 13.2388 8.83568 13.1748 8.60768 13.0913C8.37968 13.0077 8.1659 12.8939 7.96634 12.7499L7.29968 13.4166C7.16634 13.5388 7.00812 13.6028 6.82501 13.6086C6.6419 13.6144 6.48345 13.5504 6.34968 13.4166C6.2159 13.2828 6.14923 13.1246 6.14968 12.9419C6.15012 12.7593 6.21679 12.6008 6.34968 12.4666L7.03301 11.7833C6.99968 11.7277 6.96634 11.6695 6.93301 11.6086C6.89968 11.5477 6.86634 11.4893 6.83301 11.4333L6.38301 10.5499L5.56634 11.3666C5.43301 11.4888 5.27745 11.5528 5.09968 11.5586C4.9219 11.5644 4.76634 11.5004 4.63301 11.3666C4.49968 11.2328 4.43301 11.0773 4.43301 10.8999C4.43301 10.7226 4.49968 10.567 4.63301 10.4333L5.44968 9.59992L4.56634 9.16659C4.51079 9.14437 4.46079 9.11948 4.41634 9.09192C4.3719 9.06437 4.3219 9.0337 4.26634 8.99992L3.66634 9.59992C3.53301 9.72214 3.37479 9.78614 3.19168 9.79192C3.00857 9.7977 2.85012 9.7337 2.71634 9.59992C2.58257 9.46614 2.5159 9.31059 2.51634 9.13325C2.51679 8.95592 2.58345 8.80037 2.71634 8.66659L3.29968 8.08325C3.14412 7.87214 3.01923 7.64725 2.92501 7.40859C2.83079 7.16992 2.76123 6.92259 2.71634 6.66659H1.99968C1.81079 6.66659 1.65257 6.60259 1.52501 6.47459C1.39745 6.34659 1.33345 6.18837 1.33301 5.99992C1.33257 5.81148 1.39657 5.65325 1.52501 5.52525C1.65345 5.39725 1.81168 5.33325 1.99968 5.33325H2.74968C2.80523 5.12214 2.8719 4.92214 2.94968 4.73325C3.02745 4.54437 3.12745 4.36103 3.24968 4.18325L2.66634 3.59992C2.53301 3.46659 2.46634 3.31103 2.46634 3.13325C2.46634 2.95548 2.53301 2.79992 2.66634 2.66659C2.79968 2.53325 2.95523 2.46659 3.13301 2.46659C3.31079 2.46659 3.46634 2.53325 3.59968 2.66659L4.18301 3.24992C4.36079 3.1277 4.54412 3.0277 4.73301 2.94992C4.9219 2.87214 5.1219 2.80548 5.33301 2.74992V1.99992C5.33301 1.81103 5.39701 1.65259 5.52501 1.52459C5.65301 1.39659 5.81123 1.33281 5.99968 1.33325C6.18812 1.3337 6.34657 1.3977 6.47501 1.52525C6.60346 1.65281 6.66723 1.81103 6.66634 1.99992V2.71659C6.93301 2.76103 7.1859 2.83325 7.42501 2.93325C7.66412 3.03325 7.88901 3.16103 8.09968 3.31659L8.68301 2.73325C8.81634 2.59992 8.97457 2.53325 9.15768 2.53325C9.34079 2.53325 9.49923 2.59992 9.63301 2.73325C9.76679 2.86659 9.83346 3.02214 9.83301 3.19992C9.83257 3.3777 9.7659 3.53325 9.63301 3.66659L9.01634 4.28325C9.03857 4.3277 9.06346 4.37214 9.09101 4.41659C9.11857 4.46103 9.14368 4.51103 9.16634 4.56659L9.58301 5.39992L10.3497 4.63325C10.483 4.49992 10.6415 4.43325 10.825 4.43325C11.0086 4.43325 11.1668 4.49992 11.2997 4.63325C11.4326 4.76659 11.4992 4.92503 11.4997 5.10859C11.5001 5.29214 11.4335 5.45037 11.2997 5.58325L10.4997 6.36659L11.433 6.83325C11.4997 6.86659 11.5692 6.90281 11.6417 6.94192C11.7141 6.98103 11.7779 7.02259 11.833 7.06659L12.4997 6.39992C12.633 6.26659 12.7886 6.19992 12.9663 6.19992C13.1441 6.19992 13.2997 6.26659 13.433 6.39992C13.5663 6.53325 13.633 6.6917 13.633 6.87525C13.633 7.05881 13.5663 7.21703 13.433 7.34992L12.7663 7.99992C12.8997 8.19992 13.0081 8.41103 13.0917 8.63325C13.1752 8.85548 13.239 9.08881 13.283 9.33325H13.9997C14.1886 9.33325 14.347 9.39725 14.475 9.52526C14.603 9.65325 14.6668 9.81148 14.6663 9.99992C14.6659 10.1884 14.6019 10.3468 14.4743 10.4753C14.3468 10.6037 14.1886 10.6675 13.9997 10.6666H13.2497C13.1941 10.8777 13.1275 11.075 13.0497 11.2586C12.9719 11.4421 12.8719 11.6226 12.7497 11.7999L13.3163 12.3666C13.4497 12.4999 13.5163 12.6584 13.5163 12.8419C13.5163 13.0255 13.4497 13.1837 13.3163 13.3166C13.183 13.4388 13.0248 13.5028 12.8417 13.5086C12.6586 13.5144 12.5001 13.4504 12.3663 13.3166L11.8163 12.7499C11.6386 12.8721 11.4552 12.9721 11.2663 13.0499C11.0775 13.1277 10.8775 13.1944 10.6663 13.2499V13.9999C10.6663 14.1888 10.6026 14.3473 10.475 14.4753C10.3475 14.6033 10.189 14.667 9.99968 14.6666ZM6.33301 6.99992C6.61079 6.99992 6.84701 6.90281 7.04168 6.70859C7.23634 6.51437 7.33346 6.27814 7.33301 5.99992C7.33257 5.7217 7.23545 5.4857 7.04168 5.29192C6.8479 5.09814 6.61168 5.00081 6.33301 4.99992C6.05434 4.99903 5.81834 5.09637 5.62501 5.29192C5.43168 5.48748 5.33434 5.72348 5.33301 5.99992C5.33168 6.27637 5.42901 6.51259 5.62501 6.70859C5.82101 6.90459 6.05701 7.0017 6.33301 6.99992ZM9.66634 11.1666C9.89968 11.1666 10.097 11.0859 10.2583 10.9246C10.4197 10.7633 10.5001 10.5661 10.4997 10.3333C10.4992 10.1004 10.4186 9.90303 10.2577 9.74125C10.0968 9.57948 9.89968 9.49903 9.66634 9.49992C9.43301 9.50081 9.23568 9.58148 9.07434 9.74192C8.91301 9.90237 8.83257 10.0995 8.83301 10.3333C8.83346 10.567 8.91412 10.7644 9.07501 10.9253C9.2359 11.0861 9.43301 11.1666 9.66634 11.1666Z" fill="#9F7AEA"/>
</svg>
