<svg width="20" height="20" viewBox="0 0 20 20" fill="none" xmlns="http://www.w3.org/2000/svg">
<path d="M10.209 5.41602C10.7063 5.41602 11.1832 5.21847 11.5348 4.86684C11.8864 4.51521 12.084 4.0383 12.084 3.54102C12.084 3.04373 11.8864 2.56682 11.5348 2.21519C11.1832 1.86356 10.7063 1.66602 10.209 1.66602C9.7117 1.66602 9.23479 1.86356 8.88316 2.21519C8.53153 2.56682 8.33398 3.04373 8.33398 3.54102C8.33398 4.0383 8.53153 4.51521 8.88316 4.86684C9.23479 5.21847 9.7117 5.41602 10.209 5.41602Z" fill="#7E7E7E"/>
<path fill-rule="evenodd" clip-rule="evenodd" d="M6.80283 7.69646C6.95734 7.16247 7.31495 6.71028 7.79898 6.43688C8.283 6.16348 8.85489 6.09063 9.39199 6.23396C9.64783 6.3023 9.86949 6.4373 10.042 6.61563C10.1042 6.66841 10.1581 6.73035 10.2037 6.80146L11.7078 9.16563H13.3337C13.4431 9.16421 13.5517 9.18435 13.6534 9.22492C13.755 9.26548 13.8477 9.32567 13.9261 9.40205C14.0045 9.47842 14.0671 9.56949 14.1102 9.67005C14.1534 9.77061 14.1764 9.8787 14.1778 9.98813C14.1792 10.0976 14.1591 10.2062 14.1185 10.3079C14.078 10.4095 14.0178 10.5022 13.9414 10.5806C13.865 10.6589 13.774 10.7215 13.6734 10.7647C13.5728 10.8079 13.4648 10.8309 13.3553 10.8323H16.667C17.109 10.8323 17.5329 11.0079 17.8455 11.3205C18.1581 11.633 18.3337 12.0569 18.3337 12.499V18.3323H16.667V12.499H3.33366V18.3323H1.66699V12.499C1.66699 12.0569 1.84259 11.633 2.15515 11.3205C2.46771 11.0079 2.89163 10.8323 3.33366 10.8323H6.17366C6.08173 10.5247 6.08057 10.1972 6.17033 9.88896L6.80283 7.69646ZM10.0053 10.8323H10.7928L10.147 9.8173L10.0053 10.8323Z" fill="#7E7E7E"/>
<path d="M6.68898 13.332L6.49732 14.6695L4.75065 16.9987C4.68499 17.0862 4.63722 17.1859 4.61006 17.2919C4.5829 17.3979 4.57688 17.5082 4.59236 17.6165C4.60784 17.7249 4.6445 17.8291 4.70026 17.9233C4.75601 18.0174 4.82977 18.0997 4.91732 18.1654C5.00487 18.231 5.10449 18.2788 5.2105 18.306C5.31651 18.3331 5.42683 18.3391 5.53517 18.3237C5.6435 18.3082 5.74773 18.2715 5.8419 18.2158C5.93606 18.16 6.01832 18.0862 6.08398 17.9987L8.08732 15.3279L8.37232 13.332H6.68898ZM8.42982 13.332L10.3457 15.207L11.5265 17.827C11.5685 17.9291 11.6305 18.0219 11.7087 18.0998C11.7869 18.1778 11.8799 18.2394 11.9821 18.2812C12.0843 18.3229 12.1939 18.3439 12.3043 18.3429C12.4147 18.3419 12.5239 18.319 12.6254 18.2755C12.7269 18.232 12.8187 18.1687 12.8955 18.0894C12.9724 18.0101 13.0327 17.9163 13.073 17.8135C13.1132 17.7106 13.1326 17.6008 13.1301 17.4904C13.1276 17.38 13.1031 17.2712 13.0582 17.1704L11.739 14.332L10.7465 13.332H8.42982Z" fill="#7E7E7E"/>
</svg>
