<svg width="70" height="67" viewBox="0 0 70 67" fill="none" xmlns="http://www.w3.org/2000/svg">
<g filter="url(#filter0_d_1666_5398)">
<rect x="6" y="2.5" width="58" height="55" rx="12" fill="#FB7D5B"/>
</g>
<path d="M28.0417 41.125V38.5417H33.2083V34.5375C32.1535 34.3007 31.2118 33.8542 30.3835 33.198C29.5551 32.5419 28.9467 31.7182 28.5583 30.7271C26.9437 30.5333 25.5931 29.8285 24.5064 28.6126C23.4197 27.3967 22.8759 25.9703 22.875 24.3333V23.0417C22.875 22.3312 23.1282 21.7233 23.6345 21.2178C24.1408 20.7124 24.7488 20.4592 25.4583 20.4583H28.0417V17.875H40.9583V20.4583H43.5417C44.2521 20.4583 44.8605 20.7115 45.3668 21.2178C45.8731 21.7242 46.1259 22.3321 46.125 23.0417V24.3333C46.125 25.9694 45.5812 27.3959 44.4936 28.6126C43.406 29.8294 42.0554 30.5342 40.4417 30.7271C40.0542 31.7174 39.4462 32.541 38.6178 33.198C37.7894 33.8551 36.8474 34.3016 35.7917 34.5375V38.5417H40.9583V41.125H28.0417ZM28.0417 27.95V23.0417H25.4583V24.3333C25.4583 25.1514 25.6951 25.8889 26.1688 26.546C26.6424 27.203 27.2667 27.671 28.0417 27.95ZM34.5 32.0833C35.5764 32.0833 36.4913 31.7066 37.2448 30.9531C37.9983 30.1997 38.375 29.2847 38.375 28.2083V20.4583H30.625V28.2083C30.625 29.2847 31.0017 30.1997 31.7552 30.9531C32.5087 31.7066 33.4236 32.0833 34.5 32.0833ZM40.9583 27.95C41.7333 27.6701 42.3576 27.2017 42.8313 26.5447C43.3049 25.8876 43.5417 25.1505 43.5417 24.3333V23.0417H40.9583V27.95Z" fill="white"/>
<defs>
<filter id="filter0_d_1666_5398" x="0.5" y="0.5" width="69" height="66" filterUnits="userSpaceOnUse" color-interpolation-filters="sRGB">
<feFlood flood-opacity="0" result="BackgroundImageFix"/>
<feColorMatrix in="SourceAlpha" type="matrix" values="0 0 0 0 0 0 0 0 0 0 0 0 0 0 0 0 0 0 127 0" result="hardAlpha"/>
<feOffset dy="3.5"/>
<feGaussianBlur stdDeviation="2.75"/>
<feColorMatrix type="matrix" values="0 0 0 0 0 0 0 0 0 0 0 0 0 0 0 0 0 0 0.02 0"/>
<feBlend mode="normal" in2="BackgroundImageFix" result="effect1_dropShadow_1666_5398"/>
<feBlend mode="normal" in="SourceGraphic" in2="effect1_dropShadow_1666_5398" result="shape"/>
</filter>
</defs>
</svg>
