<svg width="20" height="20" viewBox="0 0 20 20" fill="none" xmlns="http://www.w3.org/2000/svg">
<path d="M10.589 1.91086L18.089 9.41086C18.614 9.93586 18.2423 10.8334 17.4998 10.8334H16.6665V15.8334C16.6665 16.4964 16.4031 17.1323 15.9343 17.6011C15.4654 18.07 14.8295 18.3334 14.1665 18.3334H13.3332V12.5C13.3332 11.8623 13.0896 11.2488 12.6521 10.7848C12.2146 10.3209 11.6164 10.0416 10.9798 10.0042L10.8332 10H9.1665C8.50345 10 7.86757 10.2634 7.39873 10.7323C6.92989 11.2011 6.6665 11.837 6.6665 12.5V18.3334H5.83316C5.17012 18.3334 4.53424 18.07 4.0654 17.6011C3.59655 17.1323 3.33316 16.4964 3.33316 15.8334V10.8334H2.49983C1.75816 10.8334 1.38566 9.93586 1.91066 9.41086L9.41066 1.91086C9.56694 1.75463 9.77886 1.66687 9.99983 1.66687C10.2208 1.66687 10.4327 1.75463 10.589 1.91086ZM10.8332 11.6667C11.0542 11.6667 11.2661 11.7545 11.4224 11.9108C11.5787 12.067 11.6665 12.279 11.6665 12.5V18.3334H8.33316V12.5C8.33319 12.2959 8.40813 12.0989 8.54376 11.9464C8.67939 11.7939 8.86629 11.6964 9.069 11.6725L9.1665 11.6667H10.8332Z" fill="white"/>
</svg>
