<svg width="70" height="70" viewBox="0 0 70 70" fill="none" xmlns="http://www.w3.org/2000/svg">
<g filter="url(#filter0_d_1666_3160)">
<rect x="5.95508" y="2.5" width="58" height="57.7299" rx="12" fill="#D9F7E8"/>
</g>
<path d="M27.1895 44.3979V42.6585C27.19 41.2566 26.8838 39.8734 26.2943 38.6155L25.9185 37.8129C25.1617 36.1957 24.768 34.418 24.7676 32.6162V25.6746C24.7676 24.6063 25.5813 23.7386 26.5837 23.7386C27.5873 23.7386 28.401 24.6063 28.401 25.6746M38.0885 44.3979V42.6639C38.0911 41.1142 39.6321 40.3252 40.8927 39.5537C42.3342 38.6711 43.489 37.2462 44.0225 35.5325C44.3725 34.4045 43.4025 33.4243 42.2425 33.4243C41.0826 33.4243 40.0984 34.4872 39.2588 35.302C39.148 35.4109 39.0283 35.5094 38.901 35.5962C37.2632 36.693 35.0764 35.3739 35.0764 33.4243C35.0764 31.4746 37.2632 30.1555 38.901 31.2509C39.3092 31.476 39.6463 31.7743 39.915 32.0847C40.5259 32.7897 41.3306 33.4243 42.2529 33.4243C43.4322 33.4243 44.4216 32.425 44.0715 31.2753C43.6259 29.8322 42.755 28.5749 41.5844 27.685C40.4139 26.7951 39.0043 26.3185 37.559 26.324C36.2712 26.324 35.6654 26.7064 35.6654 26.7064L38.436 19.9221C38.9204 18.6625 38.0524 17.2823 36.7749 17.2823C36.0955 17.2823 35.4742 17.6918 35.1694 18.3399L32.0332 25.0293M32.0332 25.0293L31.4545 26.263M32.0332 25.0293V20.5105C32.0332 19.4407 31.2195 18.5731 30.2171 18.5731C29.2135 18.5731 28.401 19.4407 28.401 20.5105V25.676V30.1948" stroke="#00B69B" stroke-width="1.9375" stroke-linecap="round" stroke-linejoin="round"/>
<defs>
<filter id="filter0_d_1666_3160" x="0.455078" y="0.5" width="69" height="68.73" filterUnits="userSpaceOnUse" color-interpolation-filters="sRGB">
<feFlood flood-opacity="0" result="BackgroundImageFix"/>
<feColorMatrix in="SourceAlpha" type="matrix" values="0 0 0 0 0 0 0 0 0 0 0 0 0 0 0 0 0 0 127 0" result="hardAlpha"/>
<feOffset dy="3.5"/>
<feGaussianBlur stdDeviation="2.75"/>
<feColorMatrix type="matrix" values="0 0 0 0 0 0 0 0 0 0 0 0 0 0 0 0 0 0 0.02 0"/>
<feBlend mode="normal" in2="BackgroundImageFix" result="effect1_dropShadow_1666_3160"/>
<feBlend mode="normal" in="SourceGraphic" in2="effect1_dropShadow_1666_3160" result="shape"/>
</filter>
</defs>
</svg>
