<svg width="20" height="20" viewBox="0 0 20 20" fill="none" xmlns="http://www.w3.org/2000/svg">
<path d="M16.6667 14.166C17.1087 14.166 17.5326 13.9904 17.8452 13.6779C18.1577 13.3653 18.3333 12.9414 18.3333 12.4993V3.33268C18.3333 2.89065 18.1577 2.46673 17.8452 2.15417C17.5326 1.84161 17.1087 1.66602 16.6667 1.66602H7.88333C8.175 2.17435 8.33333 2.74935 8.33333 3.33268H16.6667V12.4993H9.16667V14.166M12.5 5.83268V7.49935H7.5V18.3327H5.83333V13.3327H4.16667V18.3327H2.5V11.666H1.25V7.49935C1.25 7.05732 1.42559 6.6334 1.73816 6.32084C2.05072 6.00828 2.47464 5.83268 2.91667 5.83268H12.5ZM6.66667 3.33268C6.66667 3.77471 6.49107 4.19863 6.17851 4.51119C5.86595 4.82375 5.44203 4.99935 5 4.99935C4.55797 4.99935 4.13405 4.82375 3.82149 4.51119C3.50893 4.19863 3.33333 3.77471 3.33333 3.33268C3.33333 2.89065 3.50893 2.46673 3.82149 2.15417C4.13405 1.84161 4.55797 1.66602 5 1.66602C5.44203 1.66602 5.86595 1.84161 6.17851 2.15417C6.49107 2.46673 6.66667 2.89065 6.66667 3.33268Z" fill="#7E7E7E"/>
</svg>
