<svg width="70" height="67" viewBox="0 0 70 67" fill="none" xmlns="http://www.w3.org/2000/svg">
<g filter="url(#filter0_d_1666_1477)">
<rect x="6" y="2.5" width="58" height="55" rx="12" fill="#FCC43E"/>
</g>
<path d="M25.458 41.125H43.5413M26.7497 37.25H29.333M28.0413 37.25V41.125M32.5622 30.1458L30.6247 32.0833M40.958 17.875L44.833 21.75M34.4997 41.125C36.1104 41.1251 37.6812 40.6234 38.9936 39.6896C40.306 38.7557 41.2948 37.4362 41.8226 35.9144C42.3503 34.3926 42.3908 32.7441 41.9384 31.1982C41.486 29.6523 40.5632 28.2858 39.2982 27.2887M30.6247 28.2083L34.4997 32.0833L42.2497 24.3333L38.3747 20.4583L30.6247 28.2083Z" stroke="white" stroke-width="2.58333" stroke-linecap="round" stroke-linejoin="round"/>
<defs>
<filter id="filter0_d_1666_1477" x="0.5" y="0.5" width="69" height="66" filterUnits="userSpaceOnUse" color-interpolation-filters="sRGB">
<feFlood flood-opacity="0" result="BackgroundImageFix"/>
<feColorMatrix in="SourceAlpha" type="matrix" values="0 0 0 0 0 0 0 0 0 0 0 0 0 0 0 0 0 0 127 0" result="hardAlpha"/>
<feOffset dy="3.5"/>
<feGaussianBlur stdDeviation="2.75"/>
<feColorMatrix type="matrix" values="0 0 0 0 0 0 0 0 0 0 0 0 0 0 0 0 0 0 0.02 0"/>
<feBlend mode="normal" in2="BackgroundImageFix" result="effect1_dropShadow_1666_1477"/>
<feBlend mode="normal" in="SourceGraphic" in2="effect1_dropShadow_1666_1477" result="shape"/>
</filter>
</defs>
</svg>
