<svg width="16" height="16" viewBox="0 0 16 16" fill="none" xmlns="http://www.w3.org/2000/svg">
<path d="M7.33333 4.66675L8.66667 6.66675L7.33333 8.66675H5.33333L4 6.66675L5.33333 4.66675H7.33333Z" stroke="#006FCC" stroke-width="2" stroke-linecap="round" stroke-linejoin="round"/>
<path d="M10.667 6.66675L12.0003 4.66675L10.667 2.66675H8.66699L7.33366 4.66675L8.66699 6.66675M10.667 6.66675H8.66699M10.667 6.66675L12.0003 8.66675M8.66699 6.66675L7.33366 8.66675L8.66699 10.6667M10.667 10.6667L12.0003 12.6667M10.667 10.6667L12.0003 8.66675M10.667 10.6667H8.66699M3.33366 2.66675L5.33366 4.66675M5.33366 8.66675L4.00033 10.0001M8.66699 10.6667L7.33366 12.0001M4.00033 6.66675H2.66699M12.0003 8.66675H14.0003" stroke="#006FCC" stroke-width="2" stroke-linecap="round" stroke-linejoin="round"/>
<path d="M5.99967 14.0001C6.36786 14.0001 6.66634 13.7016 6.66634 13.3334C6.66634 12.9652 6.36786 12.6667 5.99967 12.6667C5.63148 12.6667 5.33301 12.9652 5.33301 13.3334C5.33301 13.7016 5.63148 14.0001 5.99967 14.0001Z" fill="#006FCC"/>
<path d="M2.66667 12.0001C3.03486 12.0001 3.33333 11.7016 3.33333 11.3334C3.33333 10.9652 3.03486 10.6667 2.66667 10.6667C2.29848 10.6667 2 10.9652 2 11.3334C2 11.7016 2.29848 12.0001 2.66667 12.0001Z" fill="#006FCC"/>
<path d="M13.9997 5.33333C14.3679 5.33333 14.6663 5.03486 14.6663 4.66667C14.6663 4.29848 14.3679 4 13.9997 4C13.6315 4 13.333 4.29848 13.333 4.66667C13.333 5.03486 13.6315 5.33333 13.9997 5.33333Z" fill="#006FCC"/>
</svg>
