<svg width="16" height="16" viewBox="0 0 16 16" fill="none" xmlns="http://www.w3.org/2000/svg">
<path d="M7.99998 3.86198C8.79162 4.43919 9.53658 5.07783 10.228 5.77198C10.9221 6.46337 11.5608 7.20834 12.138 7.99998M7.99998 3.86198C7.20834 4.43919 6.46337 5.07783 5.77198 5.77198C5.07783 6.46337 4.43919 7.20834 3.86198 7.99998M7.99998 3.86198C10.38 2.13931 12.6313 1.49264 13.5693 2.43064C14.5073 3.36864 13.8606 5.61998 12.138 7.99998M12.138 7.99998C13.8606 10.38 14.5073 12.6313 13.5693 13.5693C12.874 14.2646 11.456 14.0893 9.79998 13.2493M12.138 7.99998C11.5608 8.79162 10.9221 9.53658 10.228 10.228C9.53658 10.9221 8.79162 11.5608 7.99998 12.138M3.86198 7.99998C4.43919 8.79162 5.07783 9.53658 5.77198 10.228C6.46337 10.9221 7.20834 11.5608 7.99998 12.138M3.86198 7.99998C2.13931 10.38 1.49264 12.6313 2.43064 13.5693C3.36864 14.5073 5.61998 13.8606 7.99998 12.138M3.86198 7.99998C2.13998 5.61998 1.49331 3.36864 2.43064 2.43064C3.12598 1.73531 4.54398 1.91064 6.19998 2.75064" stroke="#CC0000" stroke-width="1.5" stroke-linecap="round" stroke-linejoin="round"/>
<path d="M8.00033 9.33341C8.73671 9.33341 9.33366 8.73646 9.33366 8.00008C9.33366 7.2637 8.73671 6.66675 8.00033 6.66675C7.26395 6.66675 6.66699 7.2637 6.66699 8.00008C6.66699 8.73646 7.26395 9.33341 8.00033 9.33341Z" stroke="#CC0000" stroke-width="1.5" stroke-linecap="round" stroke-linejoin="round"/>
</svg>
