<svg width="20" height="20" viewBox="0 0 20 20" fill="none" xmlns="http://www.w3.org/2000/svg">
<path d="M11.667 12.5001C11.9031 12.5001 12.1081 12.4134 12.282 12.2401C12.4559 12.0667 12.5425 11.8617 12.542 11.6251C12.5414 11.3884 12.4548 11.1837 12.282 11.0109C12.1092 10.8381 11.9042 10.7512 11.667 10.7501C11.4298 10.749 11.225 10.8359 11.0528 11.0109C10.8806 11.1859 10.7937 11.3906 10.792 11.6251C10.7903 11.8595 10.8773 12.0645 11.0528 12.2401C11.2284 12.4156 11.4331 12.5023 11.667 12.5001ZM11.042 9.83342H12.292C12.292 9.43064 12.3337 9.13564 12.417 8.94841C12.5003 8.76119 12.6948 8.51453 13.0003 8.20842C13.417 7.79175 13.6948 7.45508 13.8337 7.19841C13.9725 6.94175 14.042 6.63953 14.042 6.29175C14.042 5.66675 13.8231 5.15647 13.3853 4.76091C12.9475 4.36536 12.3748 4.1673 11.667 4.16675C11.0975 4.16675 10.6012 4.32647 10.1778 4.64591C9.75449 4.96536 9.45921 5.38897 9.29199 5.91675L10.417 6.37508C10.542 6.02786 10.7123 5.76758 10.9278 5.59425C11.1434 5.42091 11.3898 5.33397 11.667 5.33341C12.0003 5.33341 12.2712 5.4273 12.4795 5.61508C12.6878 5.80286 12.792 6.05619 12.792 6.37508C12.792 6.56953 12.7364 6.75369 12.6253 6.92758C12.5142 7.10147 12.3198 7.32008 12.042 7.58342C11.5837 7.98619 11.3025 8.3023 11.1987 8.53175C11.0948 8.76119 11.0425 9.19508 11.042 9.83342ZM6.66699 15.0001C6.20866 15.0001 5.81644 14.837 5.49033 14.5109C5.16421 14.1848 5.00088 13.7923 5.00033 13.3334V3.33341C5.00033 2.87508 5.16366 2.48286 5.49033 2.15675C5.81699 1.83064 6.20921 1.6673 6.66699 1.66675H16.667C17.1253 1.66675 17.5178 1.83008 17.8445 2.15675C18.1712 2.48341 18.3342 2.87564 18.3337 3.33341V13.3334C18.3337 13.7917 18.1706 14.1842 17.8445 14.5109C17.5184 14.8376 17.1259 15.0006 16.667 15.0001H6.66699ZM6.66699 13.3334H16.667V3.33341H6.66699V13.3334ZM3.33366 18.3334C2.87533 18.3334 2.4831 18.1704 2.15699 17.8442C1.83088 17.5181 1.66755 17.1256 1.66699 16.6667V5.00008H3.33366V16.6667H15.0003V18.3334H3.33366Z" fill="#7E7E7E"/>
</svg>
