<svg width="20" height="20" viewBox="0 0 20 20" fill="none" xmlns="http://www.w3.org/2000/svg">
<path fill-rule="evenodd" clip-rule="evenodd" d="M3.125 1.30615C2.95924 1.30615 2.80027 1.372 2.68306 1.48921C2.56585 1.60642 2.5 1.76539 2.5 1.93115V15.5687C2.5 15.7344 2.56585 15.8934 2.68306 16.0106C2.80027 16.1278 2.95924 16.1937 3.125 16.1937H14.375C14.5408 16.1937 14.6997 16.1278 14.8169 16.0106C14.9342 15.8934 15 15.7344 15 15.5687V6.7049C15.0002 6.62098 14.9834 6.53789 14.9508 6.46057C14.9181 6.38326 14.8703 6.31331 14.81 6.2549L9.88875 1.4849C9.77235 1.37141 9.61632 1.30774 9.45375 1.3074L3.125 1.30615ZM12.8325 6.0799L10.0787 3.40865V6.0799H12.8325ZM7.5 6.8749H5V5.6249H7.5V6.8749ZM12.5 9.9999H5V8.7499H12.5V9.9999ZM5 13.1249H12.5V11.8749H5V13.1249Z" fill="#7E7E7E"/>
<path d="M16.25 9.375V17.5H5.625V18.75H16.875C17.0408 18.75 17.1997 18.6842 17.3169 18.5669C17.4342 18.4497 17.5 18.2908 17.5 18.125V9.375H16.25Z" fill="#7E7E7E"/>
</svg>
