<svg width="20" height="20" viewBox="0 0 20 20" fill="none" xmlns="http://www.w3.org/2000/svg">
<path d="M7.70833 18.3327L7.375 15.666C7.19444 15.5966 7.02444 15.5132 6.865 15.416C6.70556 15.3188 6.54917 15.2146 6.39583 15.1035L3.91667 16.1452L1.625 12.1868L3.77083 10.5618C3.75694 10.4646 3.75 10.371 3.75 10.281V9.71852C3.75 9.62796 3.75694 9.53407 3.77083 9.43685L1.625 7.81185L3.91667 3.85352L6.39583 4.89518C6.54861 4.78407 6.70833 4.6799 6.875 4.58268C7.04167 4.48546 7.20833 4.40213 7.375 4.33268L7.70833 1.66602H12.2917L12.625 4.33268C12.8056 4.40213 12.9758 4.48546 13.1358 4.58268C13.2958 4.6799 13.4519 4.78407 13.6042 4.89518L16.0833 3.85352L18.375 7.81185L16.2292 9.43685C16.2431 9.53407 16.25 9.62796 16.25 9.71852V10.2802C16.25 10.3707 16.2361 10.4646 16.2083 10.5618L18.3542 12.1868L16.0625 16.1452L13.6042 15.1035C13.4514 15.2146 13.2917 15.3188 13.125 15.416C12.9583 15.5132 12.7917 15.5966 12.625 15.666L12.2917 18.3327H7.70833ZM10.0417 12.916C10.8472 12.916 11.5347 12.6313 12.1042 12.0618C12.6736 11.4924 12.9583 10.8049 12.9583 9.99935C12.9583 9.19379 12.6736 8.50629 12.1042 7.93685C11.5347 7.3674 10.8472 7.08268 10.0417 7.08268C9.22222 7.08268 8.53111 7.3674 7.96833 7.93685C7.40556 8.50629 7.12444 9.19379 7.125 9.99935C7.12556 10.8049 7.40694 11.4924 7.96917 12.0618C8.53139 12.6313 9.22222 12.916 10.0417 12.916Z" fill="#7E7E7E"/>
</svg>
