<svg width="70" height="67" viewBox="0 0 70 67" fill="none" xmlns="http://www.w3.org/2000/svg">
<g filter="url(#filter0_d_1666_5413)">
<rect x="6" y="2.5" width="58" height="55" rx="12" fill="#FCC43E"/>
</g>
<path fill-rule="evenodd" clip-rule="evenodd" d="M34.5 22.5248C32.239 22.5248 30.0707 23.423 28.4719 25.0217C26.8732 26.6205 25.975 28.7888 25.975 31.0498C25.975 33.3108 26.8732 35.4791 28.4719 37.0779C30.0707 38.6766 32.239 39.5748 34.5 39.5748C36.761 39.5748 38.9293 38.6766 40.5281 37.0779C42.1268 35.4791 43.025 33.3108 43.025 31.0498C43.025 28.7888 42.1268 26.6205 40.5281 25.0217C38.9293 23.423 36.761 22.5248 34.5 22.5248ZM22.875 31.0498C22.875 27.9667 24.0998 25.0098 26.2799 22.8297C28.46 20.6496 31.4169 19.4248 34.5 19.4248C37.5831 19.4248 40.54 20.6496 42.7201 22.8297C44.9002 25.0098 46.125 27.9667 46.125 31.0498C46.125 34.1329 44.9002 37.0898 42.7201 39.2699C40.54 41.45 37.5831 42.6748 34.5 42.6748C31.4169 42.6748 28.46 41.45 26.2799 39.2699C24.0998 37.0898 22.875 34.1329 22.875 31.0498Z" fill="white"/>
<path fill-rule="evenodd" clip-rule="evenodd" d="M23.3288 19.8788C23.6195 19.5882 24.0137 19.4249 24.4247 19.4249C24.8357 19.4249 25.2299 19.5882 25.5205 19.8788L27.8455 22.2038C28.1279 22.4961 28.2841 22.8876 28.2806 23.294C28.277 23.7004 28.114 24.0892 27.8266 24.3766C27.5393 24.664 27.1505 24.827 26.7441 24.8305C26.3377 24.834 25.9462 24.6778 25.6538 24.3955L23.3288 22.0705C23.0382 21.7798 22.875 21.3856 22.875 20.9746C22.875 20.5636 23.0382 20.1694 23.3288 19.8788ZM41.1538 24.3955C41.4445 24.686 41.8387 24.8493 42.2497 24.8493C42.6607 24.8493 43.0548 24.686 43.3455 24.3955L45.6705 22.0705C45.9529 21.7781 46.1091 21.3866 46.1056 20.9802C46.102 20.5738 45.939 20.185 45.6516 19.8976C45.3643 19.6103 44.9755 19.4472 44.5691 19.4437C44.1627 19.4402 43.7712 19.5964 43.4788 19.8788L41.1538 22.2038C40.8632 22.4944 40.7 22.8886 40.7 23.2996C40.7 23.7106 40.8632 24.1048 41.1538 24.3955ZM39.5837 26.9809C39.711 27.1397 39.8058 27.3221 39.8627 27.5176C39.9196 27.7131 39.9373 27.9179 39.915 28.1203C39.8927 28.3227 39.8308 28.5187 39.7327 28.6971C39.6346 28.8755 39.5023 29.0329 39.3434 29.1602L35.4684 32.2602C35.1474 32.5171 34.7374 32.636 34.3287 32.5906C33.92 32.5453 33.546 32.3394 33.2891 32.0184C33.0322 31.6973 32.9133 31.2873 32.9587 30.8786C33.004 30.4699 33.2099 30.096 33.5309 29.8391L37.4059 26.7391C37.5649 26.6118 37.7473 26.5171 37.9429 26.4603C38.1385 26.4036 38.3433 26.386 38.5457 26.4084C38.7481 26.4309 38.944 26.493 39.1224 26.5912C39.3008 26.6894 39.458 26.8218 39.5852 26.9809M32.9497 20.1996V17.0996H36.0497V20.1996H32.9497Z" fill="white"/>
<path fill-rule="evenodd" clip-rule="evenodd" d="M30.625 17.0998C30.625 16.6887 30.7883 16.2945 31.079 16.0038C31.3697 15.7131 31.7639 15.5498 32.175 15.5498H36.825C37.2361 15.5498 37.6303 15.7131 37.921 16.0038C38.2117 16.2945 38.375 16.6887 38.375 17.0998C38.375 17.5109 38.2117 17.9051 37.921 18.1958C37.6303 18.4865 37.2361 18.6498 36.825 18.6498H32.175C31.7639 18.6498 31.3697 18.4865 31.079 18.1958C30.7883 17.9051 30.625 17.5109 30.625 17.0998Z" fill="white"/>
<defs>
<filter id="filter0_d_1666_5413" x="0.5" y="0.5" width="69" height="66" filterUnits="userSpaceOnUse" color-interpolation-filters="sRGB">
<feFlood flood-opacity="0" result="BackgroundImageFix"/>
<feColorMatrix in="SourceAlpha" type="matrix" values="0 0 0 0 0 0 0 0 0 0 0 0 0 0 0 0 0 0 127 0" result="hardAlpha"/>
<feOffset dy="3.5"/>
<feGaussianBlur stdDeviation="2.75"/>
<feColorMatrix type="matrix" values="0 0 0 0 0 0 0 0 0 0 0 0 0 0 0 0 0 0 0.02 0"/>
<feBlend mode="normal" in2="BackgroundImageFix" result="effect1_dropShadow_1666_5413"/>
<feBlend mode="normal" in="SourceGraphic" in2="effect1_dropShadow_1666_5413" result="shape"/>
</filter>
</defs>
</svg>
