<svg width="70" height="67" viewBox="0 0 70 67" fill="none" xmlns="http://www.w3.org/2000/svg">
<g filter="url(#filter0_d_3868_3558)">
<rect x="6" y="2.5" width="58" height="55" rx="12" fill="#313D4F"/>
</g>
<path opacity="0.2" d="M46.125 21.75L34.5 25.625L22.875 21.75L34.5 17.875L46.125 21.75Z" fill="white"/>
<path d="M46.4314 20.831L34.8064 16.956C34.6075 16.8897 34.3925 16.8897 34.1936 16.956L22.5686 20.831C22.3928 20.8903 22.2377 20.9988 22.1218 21.1437C22.0059 21.2886 21.934 21.4638 21.9147 21.6484C21.909 21.682 21.9062 21.716 21.9063 21.7501V31.4376C21.9063 31.6945 22.0083 31.9409 22.19 32.1226C22.3717 32.3043 22.6181 32.4063 22.875 32.4063C23.1319 32.4063 23.3783 32.3043 23.56 32.1226C23.7417 31.9409 23.8438 31.6945 23.8438 31.4376V23.0942L27.9113 24.4493C26.8306 26.1952 26.4869 28.2986 26.9558 30.2977C27.4246 32.2968 28.6676 34.0281 30.4119 35.1116C28.2322 35.9665 26.348 37.5128 24.9699 39.6271C24.8983 39.7337 24.8485 39.8534 24.8235 39.9793C24.7985 40.1052 24.7988 40.2349 24.8243 40.3607C24.8498 40.4865 24.9001 40.606 24.9723 40.7122C25.0444 40.8184 25.1369 40.9092 25.2444 40.9793C25.352 41.0495 25.4724 41.0975 25.5987 41.1207C25.7249 41.1439 25.8545 41.1418 25.98 41.1145C26.1054 41.0871 26.2242 41.0351 26.3293 40.9615C26.4345 40.8878 26.524 40.794 26.5926 40.6855C28.4175 37.8858 31.2995 36.2813 34.5 36.2813C37.7005 36.2813 40.5825 37.8858 42.4074 40.6855C42.5495 40.8967 42.769 41.0435 43.0184 41.0941C43.2679 41.1447 43.5272 41.0952 43.7404 40.9561C43.9536 40.8171 44.1035 40.5997 44.1577 40.351C44.2119 40.1023 44.1661 39.8423 44.0301 39.6271C42.652 37.5128 40.7605 35.9665 38.5881 35.1116C40.3307 34.0282 41.5725 32.298 42.0413 30.3004C42.5101 28.3027 42.1675 26.2007 41.0887 24.4553L46.4314 22.6752C46.6243 22.611 46.7921 22.4876 46.911 22.3226C47.03 22.1577 47.094 21.9595 47.094 21.7561C47.094 21.5528 47.03 21.3546 46.911 21.1896C46.7921 21.0246 46.6243 20.9013 46.4314 20.837V20.831ZM40.3125 28.5313C40.3128 29.4502 40.0951 30.3561 39.6775 31.1747C39.2599 31.9932 38.6541 32.7011 37.9099 33.2402C37.1657 33.7793 36.3043 34.1342 35.3964 34.2759C34.4885 34.4177 33.5599 34.3421 32.6868 34.0554C31.8137 33.7688 31.0211 33.2792 30.3738 32.6269C29.7266 31.9745 29.2433 31.1781 28.9635 30.3028C28.6837 29.4275 28.6154 28.4983 28.7643 27.5915C28.9131 26.6847 29.2748 25.8261 29.8197 25.0862L34.1936 26.5393C34.3925 26.6056 34.6075 26.6056 34.8064 26.5393L39.1803 25.0862C39.9162 26.0841 40.313 27.2915 40.3125 28.5313ZM34.5 24.6043L25.9387 21.7501L34.5 18.8959L43.0613 21.7501L34.5 24.6043Z" fill="white"/>
<defs>
<filter id="filter0_d_3868_3558" x="0.5" y="0.5" width="69" height="66" filterUnits="userSpaceOnUse" color-interpolation-filters="sRGB">
<feFlood flood-opacity="0" result="BackgroundImageFix"/>
<feColorMatrix in="SourceAlpha" type="matrix" values="0 0 0 0 0 0 0 0 0 0 0 0 0 0 0 0 0 0 127 0" result="hardAlpha"/>
<feOffset dy="3.5"/>
<feGaussianBlur stdDeviation="2.75"/>
<feColorMatrix type="matrix" values="0 0 0 0 0 0 0 0 0 0 0 0 0 0 0 0 0 0 0.02 0"/>
<feBlend mode="normal" in2="BackgroundImageFix" result="effect1_dropShadow_3868_3558"/>
<feBlend mode="normal" in="SourceGraphic" in2="effect1_dropShadow_3868_3558" result="shape"/>
</filter>
</defs>
</svg>
