<svg width="70" height="67" viewBox="0 0 70 67" fill="none" xmlns="http://www.w3.org/2000/svg">
<g filter="url(#filter0_d_3867_3493)">
<rect x="6" y="2.5" width="58" height="55" rx="12" fill="#006FCC"/>
</g>
<path d="M46.584 20.3722L34.959 16.4972C34.6613 16.3968 34.3388 16.3968 34.0411 16.4972L22.4161 20.3722C22.1387 20.4641 21.8955 20.6375 21.7181 20.8697C21.5407 21.1019 21.4375 21.3822 21.4219 21.674C21.4206 21.6994 21.4206 21.7249 21.4219 21.7503V31.4378C21.4219 31.8232 21.575 32.1928 21.8475 32.4653C22.12 32.7378 22.4896 32.8909 22.875 32.8909C23.2604 32.8909 23.63 32.7378 23.9025 32.4653C24.1751 32.1928 24.3282 31.8232 24.3282 31.4378V23.7665L27.1993 24.7231C26.3082 26.4287 26.0434 28.3928 26.451 30.2735C26.8585 32.1542 27.9126 33.8324 29.4298 35.0161C27.4444 35.9952 25.7641 37.4979 24.5703 39.3622C24.4628 39.5219 24.3882 39.7015 24.3507 39.8904C24.3132 40.0793 24.3136 40.2737 24.3519 40.4625C24.3902 40.6512 24.4657 40.8304 24.5739 40.9897C24.682 41.149 24.8208 41.2853 24.9821 41.3905C25.1434 41.4957 25.324 41.5678 25.5134 41.6026C25.7028 41.6374 25.8973 41.6342 26.0854 41.5931C26.2736 41.5521 26.4517 41.4741 26.6095 41.3637C26.7672 41.2532 26.9014 41.1125 27.0043 40.9497C28.7323 38.2905 31.4727 36.7659 34.5 36.7659C37.5274 36.7659 40.2677 38.2905 42.0018 40.9497C42.1047 41.1125 42.2389 41.2532 42.3966 41.3637C42.5544 41.4741 42.7325 41.5521 42.9207 41.5931C43.1088 41.6342 43.3033 41.6374 43.4927 41.6026C43.6821 41.5678 43.8627 41.4957 44.024 41.3905C44.1853 41.2853 44.3241 41.149 44.4323 40.9897C44.5404 40.8304 44.6159 40.6512 44.6542 40.4625C44.6925 40.2737 44.6929 40.0793 44.6554 39.8904C44.6179 39.7015 44.5433 39.5219 44.4358 39.3622C43.2408 37.4958 41.5583 35.9916 39.5702 35.0125C41.0874 33.8288 42.1415 32.1505 42.5491 30.2698C42.9566 28.3892 42.6918 26.4251 41.8008 24.7195L46.584 23.1247C46.8729 23.028 47.1242 22.843 47.3022 22.5957C47.4803 22.3484 47.5761 22.0514 47.5761 21.7467C47.5761 21.4419 47.4803 21.1449 47.3022 20.8977C47.1242 20.6504 46.8729 20.4653 46.584 20.3686V20.3722ZM34.5 19.4035L41.5295 21.7503L34.5 24.0935L27.4766 21.7503L34.5 19.4035ZM39.8281 28.5315C39.8283 29.3591 39.6357 30.1754 39.2655 30.9156C38.8954 31.6558 38.3579 32.2996 37.6957 32.796C37.0334 33.2923 36.2647 33.6276 35.4504 33.7752C34.6361 33.9228 33.7985 33.8787 33.0042 33.6464C32.2099 33.4141 31.4806 32.9999 30.8742 32.4367C30.2678 31.8735 29.8009 31.1768 29.5106 30.4018C29.2202 29.6268 29.1144 28.7949 29.2015 27.9719C29.2886 27.1489 29.5662 26.3575 30.0123 25.6604L34.0411 27.0033C34.3389 27.1034 34.6612 27.1034 34.959 27.0033L38.9878 25.6604C39.5373 26.5171 39.829 27.5137 39.8281 28.5315Z" fill="white"/>
<defs>
<filter id="filter0_d_3867_3493" x="0.5" y="0.5" width="69" height="66" filterUnits="userSpaceOnUse" color-interpolation-filters="sRGB">
<feFlood flood-opacity="0" result="BackgroundImageFix"/>
<feColorMatrix in="SourceAlpha" type="matrix" values="0 0 0 0 0 0 0 0 0 0 0 0 0 0 0 0 0 0 127 0" result="hardAlpha"/>
<feOffset dy="3.5"/>
<feGaussianBlur stdDeviation="2.75"/>
<feColorMatrix type="matrix" values="0 0 0 0 0 0 0 0 0 0 0 0 0 0 0 0 0 0 0.02 0"/>
<feBlend mode="normal" in2="BackgroundImageFix" result="effect1_dropShadow_3867_3493"/>
<feBlend mode="normal" in="SourceGraphic" in2="effect1_dropShadow_3867_3493" result="shape"/>
</filter>
</defs>
</svg>
