<svg width="20" height="20" viewBox="0 0 20 20" fill="none" xmlns="http://www.w3.org/2000/svg">
<path d="M19.1663 1.66602H0.833008V14.9993H9.61717C9.48515 13.8461 9.71585 12.6804 10.2772 11.6643H2.49967V3.33102H17.4997V9.23602C18.1191 9.51367 18.6837 9.90037 19.1663 10.3777V1.66602ZM2.49967 16.666H10.0697C10.3473 17.2855 10.734 17.85 11.2113 18.3327H2.49967V16.666Z" fill="#7E7E7E"/>
<path d="M19.1667 14.3759C19.1667 15.1676 18.935 15.9034 18.535 16.5218L19.9283 17.9193L18.7483 19.0959L17.3567 17.7009C16.6177 18.1784 15.7407 18.3961 14.8642 18.3196C13.9877 18.2431 13.1616 17.8768 12.5166 17.2785C11.8715 16.6802 11.4441 15.884 11.302 15.0157C11.1599 14.1474 11.3111 13.2565 11.7317 12.4838C12.1524 11.711 12.8185 11.1004 13.6249 10.7485C14.4313 10.3965 15.3319 10.3233 16.1846 10.5402C17.0372 10.7572 17.7933 11.2521 18.3333 11.9467C18.8734 12.6413 19.1666 13.4961 19.1667 14.3759ZM17.5 14.3759C17.5 13.8461 17.3164 13.3326 16.9805 12.9228C16.6445 12.5131 16.1769 12.2324 15.6573 12.1286C15.1378 12.0248 14.5982 12.1042 14.1306 12.3534C13.663 12.6026 13.2962 13.0061 13.0926 13.4953C12.889 13.9845 12.8612 14.5291 13.014 15.0365C13.1667 15.5438 13.4905 15.9826 13.9303 16.2781C14.3702 16.5736 14.8988 16.7075 15.4263 16.6571C15.9537 16.6068 16.4474 16.3752 16.8233 16.0018L16.8308 15.9951C17.0435 15.7825 17.2121 15.5301 17.3269 15.2522C17.4417 14.9744 17.5006 14.6766 17.5 14.3759Z" fill="#7E7E7E"/>
</svg>
