<svg width="70" height="66" viewBox="0 0 70 66" fill="none" xmlns="http://www.w3.org/2000/svg">
<g filter="url(#filter0_d_3960_4442)">
<rect x="6" y="2" width="58" height="55" rx="12" fill="#2B0086"/>
</g>
<path d="M28.0417 28.9993C30.8833 28.9993 33.2083 26.6743 33.2083 23.8327C33.2083 20.991 30.8833 18.666 28.0417 18.666C25.2 18.666 22.875 20.991 22.875 23.8327C22.875 26.6743 25.2 28.9993 28.0417 28.9993ZM33.2083 39.3327V32.4868C31.7875 31.9702 29.9792 31.5827 28.0417 31.5827C23.0042 31.5827 19 33.9077 19 36.7493V39.3327H33.2083ZM47.4167 18.666H38.375C36.9542 18.666 35.7917 19.8285 35.7917 21.2493V36.7493C35.7917 38.1702 36.9542 39.3327 38.375 39.3327H47.4167C48.8375 39.3327 50 38.1702 50 36.7493V21.2493C50 19.8285 48.8375 18.666 47.4167 18.666ZM42.25 36.7493H39.6667V21.2493H42.25V36.7493Z" fill="white"/>
<defs>
<filter id="filter0_d_3960_4442" x="0.5" y="-2.38419e-07" width="69" height="66" filterUnits="userSpaceOnUse" color-interpolation-filters="sRGB">
<feFlood flood-opacity="0" result="BackgroundImageFix"/>
<feColorMatrix in="SourceAlpha" type="matrix" values="0 0 0 0 0 0 0 0 0 0 0 0 0 0 0 0 0 0 127 0" result="hardAlpha"/>
<feOffset dy="3.5"/>
<feGaussianBlur stdDeviation="2.75"/>
<feColorMatrix type="matrix" values="0 0 0 0 0 0 0 0 0 0 0 0 0 0 0 0 0 0 0.02 0"/>
<feBlend mode="normal" in2="BackgroundImageFix" result="effect1_dropShadow_3960_4442"/>
<feBlend mode="normal" in="SourceGraphic" in2="effect1_dropShadow_3960_4442" result="shape"/>
</filter>
</defs>
</svg>
