<svg width="70" height="67" viewBox="0 0 70 67" fill="none" xmlns="http://www.w3.org/2000/svg">
<g filter="url(#filter0_d_3960_4430)">
<rect x="6" y="2.5" width="58" height="55" rx="12" fill="#060635"/>
</g>
<g clip-path="url(#clip0_3960_4430)">
<path d="M23.7188 14.5C25.0034 14.5 26.2354 15.0103 27.1438 15.9187C28.0522 16.8271 28.5625 18.0591 28.5625 19.3438C28.5625 20.6284 28.0522 21.8604 27.1438 22.7688C26.2354 23.6772 25.0034 24.1875 23.7188 24.1875C22.4341 24.1875 21.2021 23.6772 20.2937 22.7688C19.3853 21.8604 18.875 20.6284 18.875 19.3438C18.875 18.0591 19.3853 16.8271 20.2937 15.9187C21.2021 15.0103 22.4341 14.5 23.7188 14.5ZM46 14.5C47.2846 14.5 48.5167 15.0103 49.425 15.9187C50.3334 16.8271 50.8438 18.0591 50.8438 19.3438C50.8438 20.6284 50.3334 21.8604 49.425 22.7688C48.5167 23.6772 47.2846 24.1875 46 24.1875C44.7154 24.1875 43.4833 23.6772 42.575 22.7688C41.6666 21.8604 41.1562 20.6284 41.1562 19.3438C41.1562 18.0591 41.6666 16.8271 42.575 15.9187C43.4833 15.0103 44.7154 14.5 46 14.5ZM15 32.5854C15 29.0191 17.8941 26.125 21.4604 26.125H24.0457C25.0084 26.125 25.9227 26.3369 26.7461 26.7123C26.6674 27.1482 26.6311 27.6023 26.6311 28.0625C26.6311 30.3754 27.6482 32.4521 29.2527 33.875H16.2896C15.5812 33.875 15 33.2938 15 32.5854ZM39.5396 33.875H39.4973C41.1078 32.4521 42.1189 30.3754 42.1189 28.0625C42.1189 27.6023 42.0766 27.1543 42.0039 26.7123C42.8273 26.3309 43.7416 26.125 44.7043 26.125H47.2896C50.8559 26.125 53.75 29.0191 53.75 32.5854C53.75 33.2998 53.1688 33.875 52.4604 33.875H39.5457H39.5396ZM28.5625 28.0625C28.5625 26.5209 29.1749 25.0425 30.2649 23.9524C31.355 22.8624 32.8334 22.25 34.375 22.25C35.9166 22.25 37.395 22.8624 38.4851 23.9524C39.5751 25.0425 40.1875 26.5209 40.1875 28.0625C40.1875 29.6041 39.5751 31.0825 38.4851 32.1726C37.395 33.2626 35.9166 33.875 34.375 33.875C32.8334 33.875 31.355 33.2626 30.2649 32.1726C29.1749 31.0825 28.5625 29.6041 28.5625 28.0625ZM22.75 43.8834C22.75 39.4271 26.3646 35.8125 30.8209 35.8125H37.923C42.3854 35.8125 46 39.4271 46 43.8834C46 44.7734 45.2795 45.5 44.3834 45.5H24.3605C23.4705 45.5 22.7439 44.7795 22.7439 43.8834H22.75Z" fill="white"/>
</g>
<defs>
<filter id="filter0_d_3960_4430" x="0.5" y="0.5" width="69" height="66" filterUnits="userSpaceOnUse" color-interpolation-filters="sRGB">
<feFlood flood-opacity="0" result="BackgroundImageFix"/>
<feColorMatrix in="SourceAlpha" type="matrix" values="0 0 0 0 0 0 0 0 0 0 0 0 0 0 0 0 0 0 127 0" result="hardAlpha"/>
<feOffset dy="3.5"/>
<feGaussianBlur stdDeviation="2.75"/>
<feColorMatrix type="matrix" values="0 0 0 0 0 0 0 0 0 0 0 0 0 0 0 0 0 0 0.02 0"/>
<feBlend mode="normal" in2="BackgroundImageFix" result="effect1_dropShadow_3960_4430"/>
<feBlend mode="normal" in="SourceGraphic" in2="effect1_dropShadow_3960_4430" result="shape"/>
</filter>
<clipPath id="clip0_3960_4430">
<rect width="38.75" height="31" fill="white" transform="translate(15 14.5)"/>
</clipPath>
</defs>
</svg>
