<svg width="20" height="20" viewBox="0 0 20 20" fill="none" xmlns="http://www.w3.org/2000/svg">
<g clip-path="url(#clip0_1666_1341)">
<path fill-rule="evenodd" clip-rule="evenodd" d="M8.67293 4.91951e-06C6.64216 -0.000765797 4.67553 0.711233 3.11591 2.01187C1.5563 3.3125 0.502644 5.11926 0.138644 7.11715H6.86579C7.07596 5.98217 7.67671 4.95654 8.56388 4.21811C9.45104 3.47968 10.5687 3.07501 11.7229 3.07429H15.2972C14.4836 2.10999 13.469 1.3352 12.3245 0.804159C11.18 0.273117 9.93463 -0.00134006 8.67293 4.91951e-06ZM3.98007 15.9686C2.79159 15.2041 1.80797 14.1607 1.1148 12.9292C0.421638 11.6977 0.0399407 10.3155 0.00292969 8.90286H6.86579C7.07566 10.0381 7.67629 11.0641 8.56348 11.8028C9.45067 12.5415 10.5685 12.9464 11.7229 12.9471H17.3472V14.6429C17.3468 15.1842 17.1316 15.7032 16.7489 16.086C16.3661 16.4687 15.8471 16.6839 15.3058 16.6843H13.3672V19.2857C13.3672 19.4752 13.292 19.6568 13.158 19.7908C13.0241 19.9248 12.8424 20 12.6529 20H4.69436C4.50492 20 4.32324 19.9248 4.18928 19.7908C4.05533 19.6568 3.98007 19.4752 3.98007 19.2857V15.9686ZM17.3301 11.1614H17.8572C18.2361 11.1614 18.5995 11.0109 18.8674 10.743C19.1353 10.4751 19.2858 10.1117 19.2858 9.73286V6.28715C19.2858 5.90827 19.1353 5.5449 18.8674 5.277C18.5995 5.00909 18.2361 4.85858 17.8572 4.85858H14.2086V11.1614H17.3301ZM12.4229 11.1614V4.85858H11.7229C10.8871 4.85858 10.0855 5.1906 9.49453 5.78161C8.90353 6.37262 8.5715 7.17419 8.5715 8.01C8.5715 8.84582 8.90353 9.64739 9.49453 10.2384C10.0855 10.8294 10.8871 11.1614 11.7229 11.1614H12.4229Z" fill="#7E7E7E"/>
</g>
<defs>
<clipPath id="clip0_1666_1341">
<rect width="20" height="20" fill="white"/>
</clipPath>
</defs>
</svg>
