<svg width="70" height="67" viewBox="0 0 70 67" fill="none" xmlns="http://www.w3.org/2000/svg">
<g filter="url(#filter0_d_3967_6348)">
<rect x="6" y="2.5" width="58" height="55" rx="12" fill="#006FCC"/>
</g>
<path d="M36.9583 42.916C35.1715 42.916 33.6487 42.2861 32.3897 41.0263C31.1308 39.7665 30.5009 38.2436 30.5 36.4577C30.4991 34.6717 31.129 33.1489 32.3897 31.8891C33.6504 30.6293 35.1733 29.9993 36.9583 29.9993C38.7434 29.9993 40.2667 30.6293 41.5282 31.8891C42.7898 33.1489 43.4192 34.6717 43.4167 36.4577C43.4141 38.2436 42.7842 39.7669 41.527 41.0276C40.2697 42.2883 38.7469 42.9177 36.9583 42.916ZM39.1219 39.5254L40.026 38.6212L37.6042 36.1993V32.5827H36.3125V36.716L39.1219 39.5254ZM18.875 41.6243V18.3743H26.851C27.0878 17.6209 27.5507 17.0022 28.2396 16.5182C28.9285 16.0343 29.6819 15.7919 30.5 15.791C31.3611 15.791 32.1309 16.0334 32.8095 16.5182C33.4881 17.003 33.9453 17.6217 34.1812 18.3743H42.125V29.0306C41.7375 28.7507 41.3285 28.5139 40.8979 28.3202C40.4674 28.1264 40.0153 27.9542 39.5417 27.8035V20.9577H36.9583V24.8327H24.0417V20.9577H21.4583V39.041H28.3042C28.4549 39.5146 28.6271 39.9667 28.8208 40.3973C29.0146 40.8278 29.2514 41.2368 29.5312 41.6243H18.875ZM30.5 20.9577C30.866 20.9577 31.173 20.8337 31.421 20.5857C31.669 20.3377 31.7925 20.0311 31.7917 19.666C31.7908 19.3009 31.6668 18.9943 31.4197 18.7463C31.1725 18.4983 30.866 18.3743 30.5 18.3743C30.134 18.3743 29.8275 18.4983 29.5803 18.7463C29.3332 18.9943 29.2092 19.3009 29.2083 19.666C29.2075 20.0311 29.3315 20.3381 29.5803 20.587C29.8292 20.8358 30.1357 20.9594 30.5 20.9577Z" fill="white"/>
<defs>
<filter id="filter0_d_3967_6348" x="0.5" y="0.5" width="69" height="66" filterUnits="userSpaceOnUse" color-interpolation-filters="sRGB">
<feFlood flood-opacity="0" result="BackgroundImageFix"/>
<feColorMatrix in="SourceAlpha" type="matrix" values="0 0 0 0 0 0 0 0 0 0 0 0 0 0 0 0 0 0 127 0" result="hardAlpha"/>
<feOffset dy="3.5"/>
<feGaussianBlur stdDeviation="2.75"/>
<feColorMatrix type="matrix" values="0 0 0 0 0 0 0 0 0 0 0 0 0 0 0 0 0 0 0.02 0"/>
<feBlend mode="normal" in2="BackgroundImageFix" result="effect1_dropShadow_3967_6348"/>
<feBlend mode="normal" in="SourceGraphic" in2="effect1_dropShadow_3967_6348" result="shape"/>
</filter>
</defs>
</svg>
