<svg width="70" height="67" viewBox="0 0 70 67" fill="none" xmlns="http://www.w3.org/2000/svg">
<g filter="url(#filter0_d_3967_6359)">
<rect x="6" y="2.5" width="58" height="55" rx="12" fill="#CC0000"/>
</g>
<path d="M29.6 37.5L35 32.1L40.4 37.5L42.5 35.4L37.1 30L42.5 24.6L40.4 22.5L35 27.9L29.6 22.5L27.5 24.6L32.9 30L27.5 35.4L29.6 37.5ZM35 45C32.925 45 30.975 44.606 29.15 43.818C27.325 43.03 25.7375 41.9615 24.3875 40.6125C23.0375 39.2635 21.969 37.676 21.182 35.85C20.395 34.024 20.001 32.074 20 30C19.999 27.926 20.393 25.976 21.182 24.15C21.971 22.324 23.0395 20.7365 24.3875 19.3875C25.7355 18.0385 27.323 16.97 29.15 16.182C30.977 15.394 32.927 15 35 15C37.073 15 39.023 15.394 40.85 16.182C42.677 16.97 44.2645 18.0385 45.6125 19.3875C46.9605 20.7365 48.0295 22.324 48.8195 24.15C49.6095 25.976 50.003 27.926 50 30C49.997 32.074 49.603 34.024 48.818 35.85C48.033 37.676 46.9645 39.2635 45.6125 40.6125C44.2605 41.9615 42.673 43.0305 40.85 43.8195C39.027 44.6085 37.077 45.002 35 45ZM35 42C38.35 42 41.1875 40.8375 43.5125 38.5125C45.8375 36.1875 47 33.35 47 30C47 26.65 45.8375 23.8125 43.5125 21.4875C41.1875 19.1625 38.35 18 35 18C31.65 18 28.8125 19.1625 26.4875 21.4875C24.1625 23.8125 23 26.65 23 30C23 33.35 24.1625 36.1875 26.4875 38.5125C28.8125 40.8375 31.65 42 35 42Z" fill="white"/>
<defs>
<filter id="filter0_d_3967_6359" x="0.5" y="0.5" width="69" height="66" filterUnits="userSpaceOnUse" color-interpolation-filters="sRGB">
<feFlood flood-opacity="0" result="BackgroundImageFix"/>
<feColorMatrix in="SourceAlpha" type="matrix" values="0 0 0 0 0 0 0 0 0 0 0 0 0 0 0 0 0 0 127 0" result="hardAlpha"/>
<feOffset dy="3.5"/>
<feGaussianBlur stdDeviation="2.75"/>
<feColorMatrix type="matrix" values="0 0 0 0 0 0 0 0 0 0 0 0 0 0 0 0 0 0 0.02 0"/>
<feBlend mode="normal" in2="BackgroundImageFix" result="effect1_dropShadow_3967_6359"/>
<feBlend mode="normal" in="SourceGraphic" in2="effect1_dropShadow_3967_6359" result="shape"/>
</filter>
</defs>
</svg>
