<svg width="69" height="66" viewBox="0 0 69 66" fill="none" xmlns="http://www.w3.org/2000/svg">
<g filter="url(#filter0_d_3985_9539)">
<rect x="5.5" y="2" width="58" height="55" rx="12" fill="#CC0000"/>
</g>
<path d="M33.3137 17.2241C33.2405 16.8331 33.0149 16.4871 32.6866 16.2623C32.3584 16.0376 31.9542 15.9524 31.5632 16.0256C31.1721 16.0988 30.8261 16.3244 30.6014 16.6526C30.3766 16.9809 30.2915 17.3851 30.3647 17.7761L30.8522 20.3861C29.3115 21.1787 28.0694 22.4495 27.3121 24.0078C26.5549 25.5662 26.3233 27.328 26.6522 29.0291L27.0662 31.2386L27.1487 31.6826C27.5357 33.7436 26.8067 35.0756 26.2037 36.1796C25.7762 36.9596 25.4132 37.6256 25.5482 38.3531C25.7132 39.2321 25.8782 40.1126 26.6732 39.9641L45.7232 36.3986C46.5152 36.2486 46.3502 35.3711 46.1852 34.4936C46.0307 33.6476 45.2312 32.8091 44.3927 31.9271C43.4837 30.9731 42.5282 29.9681 42.2867 28.8506C41.9372 27.2231 41.8742 26.7701 41.8322 26.4701C41.8187 26.3756 41.8082 26.2946 41.7902 26.1971C41.452 24.3247 40.4583 22.6338 38.9871 21.4272C37.5158 20.2206 35.6631 19.5772 33.7607 19.6121L33.3137 17.2241Z" fill="white"/>
<path fill-rule="evenodd" clip-rule="evenodd" d="M26.3086 17.9165C26.6033 18.1836 26.7799 18.5567 26.7995 18.9538C26.8192 19.351 26.6804 19.7397 26.4136 20.0345C24.7411 21.8795 23.8561 23.942 23.6686 26.4245C23.6388 26.8214 23.4525 27.1901 23.1508 27.4496C22.8491 27.7091 22.4567 27.8381 22.0599 27.8083C21.663 27.7785 21.2943 27.5922 21.0348 27.2905C20.7753 26.9888 20.6463 26.5964 20.6761 26.1995C20.9161 23.051 22.0696 20.36 24.1891 18.02C24.3214 17.874 24.4813 17.7555 24.6594 17.6713C24.8376 17.587 25.0306 17.5387 25.2274 17.5291C25.4242 17.5195 25.621 17.5488 25.8066 17.6153C25.9921 17.6817 26.1627 17.7841 26.3086 17.9165Z" fill="white"/>
<path d="M29.9258 41.05C30.9758 42.25 32.4758 43 34.1258 43C36.5258 43 38.4758 41.35 39.0758 39.25L29.9258 41.05Z" fill="white"/>
<defs>
<filter id="filter0_d_3985_9539" x="-4.76837e-07" y="-2.38419e-07" width="69" height="66" filterUnits="userSpaceOnUse" color-interpolation-filters="sRGB">
<feFlood flood-opacity="0" result="BackgroundImageFix"/>
<feColorMatrix in="SourceAlpha" type="matrix" values="0 0 0 0 0 0 0 0 0 0 0 0 0 0 0 0 0 0 127 0" result="hardAlpha"/>
<feOffset dy="3.5"/>
<feGaussianBlur stdDeviation="2.75"/>
<feColorMatrix type="matrix" values="0 0 0 0 0 0 0 0 0 0 0 0 0 0 0 0 0 0 0.02 0"/>
<feBlend mode="normal" in2="BackgroundImageFix" result="effect1_dropShadow_3985_9539"/>
<feBlend mode="normal" in="SourceGraphic" in2="effect1_dropShadow_3985_9539" result="shape"/>
</filter>
</defs>
</svg>
