<svg width="70" height="67" viewBox="0 0 70 67" fill="none" xmlns="http://www.w3.org/2000/svg">
<g filter="url(#filter0_d_3104_3628)">
<rect x="6" y="2.5" width="58" height="55" rx="12" fill="#CC9600"/>
</g>
<path d="M22.2285 21.7503L29.3327 19.167L36.4368 21.7503L33.2077 23.6878V25.6253C33.2077 25.6253 32.3461 24.9795 29.3327 24.9795C26.3192 24.9795 25.4577 25.6253 25.4577 25.6253V23.6878L22.2285 21.7503ZM22.2285 21.7503V26.917" stroke="white" stroke-width="1.9375" stroke-linecap="round" stroke-linejoin="round"/>
<path d="M33.208 24.9792V26.1275C33.208 28.3465 31.4733 30.1458 29.333 30.1458C27.1927 30.1458 25.458 28.3465 25.458 26.1275V24.9792M38.7854 28.2471C38.7854 28.2471 39.4119 27.7911 41.6038 27.7911C43.7958 27.7911 44.4223 28.2458 44.4223 28.2458M38.7854 28.2471V26.9167L36.4372 25.625L41.6038 23.6875L46.7705 25.625L44.4223 26.9167V28.2458M38.7854 28.2471V28.6191C38.7854 29.3666 39.0824 30.0834 39.6109 30.612C40.1395 31.1406 40.8563 31.4375 41.6038 31.4375C42.3513 31.4375 43.0682 31.1406 43.5968 30.612C44.1253 30.0834 44.4223 29.3666 44.4223 28.6191V28.2458M39.6663 39.8333H44.452C45.4504 39.8333 46.2435 39.3477 46.9565 38.6682C48.4161 37.2784 46.02 36.1676 45.1068 35.6238C44.2947 35.1444 43.3929 34.8367 42.4571 34.7196C41.5214 34.6025 40.5715 34.6786 39.6663 34.9431M24.6636 34.5711C23.4456 35.2518 20.2513 36.6403 22.1965 38.3776C23.1472 39.2262 24.2051 39.8333 25.5368 39.8333H33.1292C34.4596 39.8333 35.5188 39.2262 36.4695 38.3776C38.4147 36.6403 35.2204 35.2518 34.0024 34.5711C31.1452 32.9759 27.5208 32.9759 24.6636 34.5711Z" stroke="white" stroke-width="1.9375" stroke-linecap="round" stroke-linejoin="round"/>
<defs>
<filter id="filter0_d_3104_3628" x="0.5" y="0.5" width="69" height="66" filterUnits="userSpaceOnUse" color-interpolation-filters="sRGB">
<feFlood flood-opacity="0" result="BackgroundImageFix"/>
<feColorMatrix in="SourceAlpha" type="matrix" values="0 0 0 0 0 0 0 0 0 0 0 0 0 0 0 0 0 0 127 0" result="hardAlpha"/>
<feOffset dy="3.5"/>
<feGaussianBlur stdDeviation="2.75"/>
<feColorMatrix type="matrix" values="0 0 0 0 0 0 0 0 0 0 0 0 0 0 0 0 0 0 0.02 0"/>
<feBlend mode="normal" in2="BackgroundImageFix" result="effect1_dropShadow_3104_3628"/>
<feBlend mode="normal" in="SourceGraphic" in2="effect1_dropShadow_3104_3628" result="shape"/>
</filter>
</defs>
</svg>
