<svg width="70" height="67" viewBox="0 0 70 67" fill="none" xmlns="http://www.w3.org/2000/svg">
<g filter="url(#filter0_d_3104_3100)">
<rect x="6" y="2.5" width="58" height="55" rx="12" fill="#D9F7E8"/>
</g>
<path d="M29.9785 34.0202V32.7285H31.2702V34.0202H29.9785Z" fill="#00B69B"/>
<path fill-rule="evenodd" clip-rule="evenodd" d="M31.9163 16.583C31.4025 16.583 30.9097 16.7871 30.5463 17.1505C30.183 17.5138 29.9788 18.0067 29.9788 18.5205H27.3955C26.8817 18.5205 26.3888 18.7246 26.0255 19.088C25.6621 19.4513 25.458 19.9442 25.458 20.458V40.4788C25.458 40.9927 25.6621 41.4855 26.0255 41.8489C26.3888 42.2122 26.8817 42.4163 27.3955 42.4163H41.6038C42.1177 42.4163 42.6105 42.2122 42.9739 41.8489C43.3372 41.4855 43.5413 40.9927 43.5413 40.4788V20.458C43.5413 19.9442 43.3372 19.4513 42.9739 19.088C42.6105 18.7246 42.1177 18.5205 41.6038 18.5205H39.0205C39.0205 18.0067 38.8164 17.5138 38.453 17.1505C38.0897 16.7871 37.5969 16.583 37.083 16.583H31.9163ZM31.2705 18.5205C31.2705 18.3492 31.3386 18.185 31.4597 18.0638C31.5808 17.9427 31.7451 17.8747 31.9163 17.8747H37.083C37.2543 17.8747 37.4186 17.9427 37.5397 18.0638C37.6608 18.185 37.7288 18.3492 37.7288 18.5205V19.8122C37.7288 19.9835 37.6608 20.1477 37.5397 20.2688C37.4186 20.39 37.2543 20.458 37.083 20.458H31.9163C31.7451 20.458 31.5808 20.39 31.4597 20.2688C31.3386 20.1477 31.2705 19.9835 31.2705 19.8122V18.5205ZM29.333 26.9163C29.1617 26.9163 28.9975 26.9844 28.8763 27.1055C28.7552 27.2266 28.6872 27.3909 28.6872 27.5622C28.6872 27.7335 28.7552 27.8977 28.8763 28.0188C28.9975 28.14 29.1617 28.208 29.333 28.208H33.8538C34.0251 28.208 34.1894 28.14 34.3105 28.0188C34.4316 27.8977 34.4997 27.7335 34.4997 27.5622C34.4997 27.3909 34.4316 27.2266 34.3105 27.1055C34.1894 26.9844 34.0251 26.9163 33.8538 26.9163H29.333ZM28.6872 24.333C28.6872 24.1617 28.7552 23.9975 28.8763 23.8763C28.9975 23.7552 29.1617 23.6872 29.333 23.6872H39.3434C39.5147 23.6872 39.679 23.7552 39.8001 23.8763C39.9212 23.9975 39.9893 24.1617 39.9893 24.333C39.9893 24.5043 39.9212 24.6686 39.8001 24.7897C39.679 24.9108 39.5147 24.9788 39.3434 24.9788H29.333C29.1617 24.9788 28.9975 24.9108 28.8763 24.7897C28.7552 24.6686 28.6872 24.5043 28.6872 24.333ZM28.6872 32.083C28.6872 31.9117 28.7552 31.7475 28.8763 31.6263C28.9975 31.5052 29.1617 31.4372 29.333 31.4372H31.9163C32.0876 31.4372 32.2519 31.5052 32.373 31.6263C32.4941 31.7475 32.5622 31.9117 32.5622 32.083V34.6663C32.5622 34.8376 32.4941 35.0019 32.373 35.123C32.2519 35.2441 32.0876 35.3122 31.9163 35.3122H29.333C29.1617 35.3122 28.9975 35.2441 28.8763 35.123C28.7552 35.0019 28.6872 34.8376 28.6872 34.6663V32.083ZM37.083 34.6663C37.5969 34.6663 38.0897 34.4622 38.453 34.0989C38.8164 33.7355 39.0205 33.2427 39.0205 32.7288C39.0205 32.215 38.8164 31.7222 38.453 31.3588C38.0897 30.9955 37.5969 30.7913 37.083 30.7913C36.5692 30.7913 36.0763 30.9955 35.713 31.3588C35.3496 31.7222 35.1455 32.215 35.1455 32.7288C35.1455 33.2427 35.3496 33.7355 35.713 34.0989C36.0763 34.4622 36.5692 34.6663 37.083 34.6663ZM33.208 37.5726C33.208 36.206 35.7894 35.5175 37.083 35.5175C38.3766 35.5175 40.958 36.206 40.958 37.5726V39.1872H33.208V37.5726Z" fill="#00B69B"/>
<defs>
<filter id="filter0_d_3104_3100" x="0.5" y="0.5" width="69" height="66" filterUnits="userSpaceOnUse" color-interpolation-filters="sRGB">
<feFlood flood-opacity="0" result="BackgroundImageFix"/>
<feColorMatrix in="SourceAlpha" type="matrix" values="0 0 0 0 0 0 0 0 0 0 0 0 0 0 0 0 0 0 127 0" result="hardAlpha"/>
<feOffset dy="3.5"/>
<feGaussianBlur stdDeviation="2.75"/>
<feColorMatrix type="matrix" values="0 0 0 0 0 0 0 0 0 0 0 0 0 0 0 0 0 0 0.02 0"/>
<feBlend mode="normal" in2="BackgroundImageFix" result="effect1_dropShadow_3104_3100"/>
<feBlend mode="normal" in="SourceGraphic" in2="effect1_dropShadow_3104_3100" result="shape"/>
</filter>
</defs>
</svg>
