<svg width="70" height="67" viewBox="0 0 70 67" fill="none" xmlns="http://www.w3.org/2000/svg">
<g filter="url(#filter0_d_4050_2765)">
<rect x="6" y="2.5" width="58" height="55" rx="12" fill="#3749A6"/>
</g>
<g clip-path="url(#clip0_4050_2765)">
<path d="M34.5 14C35.9229 14 37.2952 14.1816 38.6172 14.5449C39.9391 14.9082 41.1702 15.4329 42.3105 16.1191C43.4508 16.8053 44.4953 17.6126 45.4438 18.541C46.3924 19.4694 47.2048 20.5138 47.8809 21.6743C48.557 22.8348 49.0767 24.071 49.4399 25.3828C49.8032 26.6947 49.9899 28.0671 50 29.5C50 30.9229 49.8184 32.2952 49.4551 33.6172C49.0918 34.9391 48.5671 36.1702 47.8809 37.3105C47.1947 38.4508 46.3874 39.4953 45.459 40.4438C44.5306 41.3924 43.4862 42.2048 42.3257 42.8809C41.1652 43.557 39.929 44.0767 38.6172 44.4399C37.3053 44.8032 35.9329 44.9899 34.5 45C33.0771 45 31.7048 44.8184 30.3828 44.4551C29.0609 44.0918 27.8298 43.5671 26.6895 42.8809C25.5492 42.1947 24.5047 41.3874 23.5562 40.459C22.6076 39.5306 21.7952 38.4862 21.1191 37.3257C20.443 36.1652 19.9233 34.929 19.5601 33.6172C19.1968 32.3053 19.0101 30.9329 19 29.5C19 28.0771 19.1816 26.7048 19.5449 25.3828C19.9082 24.0609 20.4329 22.8298 21.1191 21.6895C21.8053 20.5492 22.6126 19.5047 23.541 18.5562C24.4694 17.6076 25.5138 16.7952 26.6743 16.1191C27.8348 15.443 29.071 14.9233 30.3828 14.5601C31.6947 14.1968 33.0671 14.0101 34.5 14ZM43.6274 24.3687L41.5688 22.3101L31.5938 32.2852L27.4312 28.1226L25.3726 30.1812L31.5938 36.4023L43.6274 24.3687Z" fill="white"/>
</g>
<defs>
<filter id="filter0_d_4050_2765" x="0.5" y="0.5" width="69" height="66" filterUnits="userSpaceOnUse" color-interpolation-filters="sRGB">
<feFlood flood-opacity="0" result="BackgroundImageFix"/>
<feColorMatrix in="SourceAlpha" type="matrix" values="0 0 0 0 0 0 0 0 0 0 0 0 0 0 0 0 0 0 127 0" result="hardAlpha"/>
<feOffset dy="3.5"/>
<feGaussianBlur stdDeviation="2.75"/>
<feColorMatrix type="matrix" values="0 0 0 0 0 0 0 0 0 0 0 0 0 0 0 0 0 0 0.02 0"/>
<feBlend mode="normal" in2="BackgroundImageFix" result="effect1_dropShadow_4050_2765"/>
<feBlend mode="normal" in="SourceGraphic" in2="effect1_dropShadow_4050_2765" result="shape"/>
</filter>
<clipPath id="clip0_4050_2765">
<rect width="31" height="31" fill="white" transform="translate(19 14)"/>
</clipPath>
</defs>
</svg>
