<svg width="70" height="67" viewBox="0 0 70 67" fill="none" xmlns="http://www.w3.org/2000/svg">
<g filter="url(#filter0_d_4050_2724)">
<rect x="6" y="2.5" width="58" height="55" rx="12" fill="#D9F7E8"/>
</g>
<path d="M37.082 33.3747C37.448 33.3747 37.7658 33.2403 38.0353 32.9717C38.3048 32.703 38.4391 32.3853 38.4383 32.0184C38.4374 31.6516 38.3031 31.3343 38.0353 31.0665C37.7675 30.7987 37.4497 30.6639 37.082 30.6622C36.7143 30.6605 36.397 30.7952 36.1301 31.0665C35.8631 31.3377 35.7284 31.655 35.7258 32.0184C35.7232 32.3818 35.858 32.6996 36.1301 32.9717C36.4022 33.2438 36.7195 33.3781 37.082 33.3747ZM36.1133 29.2413H38.0508C38.0508 28.617 38.1154 28.1598 38.2445 27.8696C38.3737 27.5794 38.6751 27.1971 39.1487 26.7226C39.7945 26.0768 40.2251 25.5549 40.4404 25.1571C40.6556 24.7593 40.7633 24.2908 40.7633 23.7518C40.7633 22.783 40.424 21.9921 39.7454 21.379C39.0669 20.7659 38.1791 20.4589 37.082 20.458C36.1994 20.458 35.43 20.7056 34.7738 21.2007C34.1177 21.6959 33.66 22.3525 33.4008 23.1705L35.1445 23.8809C35.3383 23.3427 35.6022 22.9393 35.9363 22.6706C36.2704 22.402 36.6523 22.2672 37.082 22.2663C37.5987 22.2663 38.0185 22.4119 38.3414 22.7029C38.6643 22.994 38.8258 23.3866 38.8258 23.8809C38.8258 24.1823 38.7397 24.4678 38.5674 24.7373C38.3952 25.0068 38.0938 25.3457 37.6633 25.7538C36.9529 26.3781 36.5171 26.8681 36.3561 27.2238C36.1951 27.5794 36.1141 28.2519 36.1133 29.2413ZM29.332 37.2497C28.6216 37.2497 28.0137 36.9969 27.5082 36.4915C27.0027 35.986 26.7496 35.3776 26.7487 34.6663V19.1663C26.7487 18.4559 27.0019 17.848 27.5082 17.3425C28.0145 16.837 28.6225 16.5839 29.332 16.583H44.832C45.5424 16.583 46.1508 16.8362 46.6572 17.3425C47.1635 17.8488 47.4162 18.4568 47.4154 19.1663V34.6663C47.4154 35.3768 47.1626 35.9851 46.6572 36.4915C46.1517 36.9978 45.5433 37.2505 44.832 37.2497H29.332ZM29.332 34.6663H44.832V19.1663H29.332V34.6663ZM24.1654 42.4163C23.4549 42.4163 22.847 42.1636 22.3415 41.6581C21.8361 41.1527 21.5829 40.5443 21.582 39.833V21.7497H24.1654V39.833H42.2487V42.4163H24.1654Z" fill="#00B69B"/>
<defs>
<filter id="filter0_d_4050_2724" x="0.5" y="0.5" width="69" height="66" filterUnits="userSpaceOnUse" color-interpolation-filters="sRGB">
<feFlood flood-opacity="0" result="BackgroundImageFix"/>
<feColorMatrix in="SourceAlpha" type="matrix" values="0 0 0 0 0 0 0 0 0 0 0 0 0 0 0 0 0 0 127 0" result="hardAlpha"/>
<feOffset dy="3.5"/>
<feGaussianBlur stdDeviation="2.75"/>
<feColorMatrix type="matrix" values="0 0 0 0 0 0 0 0 0 0 0 0 0 0 0 0 0 0 0.02 0"/>
<feBlend mode="normal" in2="BackgroundImageFix" result="effect1_dropShadow_4050_2724"/>
<feBlend mode="normal" in="SourceGraphic" in2="effect1_dropShadow_4050_2724" result="shape"/>
</filter>
</defs>
</svg>
