<svg width="70" height="67" viewBox="0 0 70 67" fill="none" xmlns="http://www.w3.org/2000/svg">
<g filter="url(#filter0_d_3104_3130)">
<rect x="6" y="2.5" width="58" height="55" rx="12" fill="#EB5B0C"/>
</g>
<path d="M37.083 33.3747C37.449 33.3747 37.7667 33.2403 38.0363 32.9717C38.3058 32.703 38.4401 32.3853 38.4393 32.0184C38.4384 31.6516 38.3041 31.3343 38.0363 31.0665C37.7685 30.7987 37.4507 30.6639 37.083 30.6622C36.7153 30.6605 36.398 30.7952 36.131 31.0665C35.8641 31.3377 35.7293 31.655 35.7268 32.0184C35.7242 32.3818 35.8589 32.6996 36.131 32.9717C36.4032 33.2438 36.7205 33.3781 37.083 33.3747ZM37.083 29.2413C37.3198 29.2413 37.5407 29.1552 37.7456 28.983C37.9506 28.8108 38.0741 28.5847 38.1163 28.3049C38.1594 28.0465 38.2507 27.8097 38.3902 27.5945C38.5297 27.3792 38.7828 27.0886 39.1497 26.7226C39.7955 26.0768 40.2261 25.5545 40.4413 25.1558C40.6566 24.7571 40.7643 24.2891 40.7643 23.7518C40.7643 22.783 40.425 21.9916 39.7464 21.3777C39.0679 20.7637 38.1801 20.4571 37.083 20.458C36.3726 20.458 35.7268 20.6195 35.1455 20.9424C34.5643 21.2653 34.1014 21.7281 33.757 22.3309C33.6278 22.5462 33.617 22.7722 33.7247 23.009C33.8323 23.2459 34.0153 23.4181 34.2736 23.5257C34.5104 23.6334 34.7421 23.6441 34.9685 23.558C35.195 23.4719 35.3832 23.3212 35.533 23.1059C35.7268 22.8261 35.9528 22.6164 36.2111 22.4769C36.4695 22.3374 36.7601 22.2672 37.083 22.2663C37.5997 22.2663 38.0195 22.4119 38.3424 22.7029C38.6653 22.994 38.8268 23.3866 38.8268 23.8809C38.8268 24.1823 38.7406 24.4678 38.5684 24.7373C38.3962 25.0068 38.0948 25.3457 37.6643 25.7538C37.04 26.292 36.6417 26.7067 36.4695 26.9977C36.2972 27.2888 36.1896 27.7137 36.1465 28.2726C36.125 28.5309 36.206 28.757 36.3894 28.9507C36.5728 29.1445 36.804 29.2413 37.083 29.2413ZM29.333 37.2497C28.6226 37.2497 28.0146 36.9969 27.5092 36.4915C27.0037 35.986 26.7505 35.3776 26.7497 34.6663V19.1663C26.7497 18.4559 27.0028 17.848 27.5092 17.3425C28.0155 16.837 28.6235 16.5839 29.333 16.583H44.833C45.5434 16.583 46.1518 16.8362 46.6581 17.3425C47.1645 17.8488 47.4172 18.4568 47.4163 19.1663V34.6663C47.4163 35.3768 47.1636 35.9851 46.6581 36.4915C46.1527 36.9978 45.5443 37.2505 44.833 37.2497H29.333ZM29.333 34.6663H44.833V19.1663H29.333V34.6663ZM24.1663 42.4163C23.4559 42.4163 22.848 42.1636 22.3425 41.6581C21.837 41.1527 21.5839 40.5443 21.583 39.833V23.0413C21.583 22.6754 21.707 22.3688 21.955 22.1217C22.203 21.8745 22.5096 21.7505 22.8747 21.7497C23.2398 21.7488 23.5468 21.8728 23.7956 22.1217C24.0445 22.3705 24.1681 22.6771 24.1663 23.0413V39.833H40.958C41.324 39.833 41.631 39.957 41.879 40.205C42.127 40.453 42.2505 40.7596 42.2497 41.1247C42.2488 41.4898 42.1248 41.7968 41.8777 42.0456C41.6305 42.2945 41.324 42.4181 40.958 42.4163H24.1663Z" fill="white"/>
<defs>
<filter id="filter0_d_3104_3130" x="0.5" y="0.5" width="69" height="66" filterUnits="userSpaceOnUse" color-interpolation-filters="sRGB">
<feFlood flood-opacity="0" result="BackgroundImageFix"/>
<feColorMatrix in="SourceAlpha" type="matrix" values="0 0 0 0 0 0 0 0 0 0 0 0 0 0 0 0 0 0 127 0" result="hardAlpha"/>
<feOffset dy="3.5"/>
<feGaussianBlur stdDeviation="2.75"/>
<feColorMatrix type="matrix" values="0 0 0 0 0 0 0 0 0 0 0 0 0 0 0 0 0 0 0.02 0"/>
<feBlend mode="normal" in2="BackgroundImageFix" result="effect1_dropShadow_3104_3130"/>
<feBlend mode="normal" in="SourceGraphic" in2="effect1_dropShadow_3104_3130" result="shape"/>
</filter>
</defs>
</svg>
