<svg width="70" height="67" viewBox="0 0 70 67" fill="none" xmlns="http://www.w3.org/2000/svg">
<g filter="url(#filter0_d_3783_4953)">
<rect x="6" y="2.66602" width="58" height="55" rx="12" fill="#313D49"/>
</g>
<path d="M46.1263 41.291V20.6243H22.8763V30.9577H20.293V20.6243C20.293 19.9139 20.5461 19.306 21.0525 18.8005C21.5588 18.295 22.1667 18.0419 22.8763 18.041H46.1263C46.8367 18.041 47.4451 18.2942 47.9514 18.8005C48.4578 19.3068 48.7105 19.9148 48.7096 20.6243V38.7077C48.7096 39.4181 48.4569 40.0265 47.9514 40.5328C47.446 41.0391 46.8376 41.2919 46.1263 41.291ZM30.6263 32.2493C29.2055 32.2493 27.9891 31.7434 26.9773 30.7316C25.9655 29.7198 25.4596 28.5035 25.4596 27.0827C25.4596 25.6618 25.9655 24.4455 26.9773 23.4337C27.9891 22.4219 29.2055 21.916 30.6263 21.916C32.0471 21.916 33.2635 22.4219 34.2753 23.4337C35.2871 24.4455 35.793 25.6618 35.793 27.0827C35.793 28.5035 35.2871 29.7198 34.2753 30.7316C33.2635 31.7434 32.0471 32.2493 30.6263 32.2493ZM20.293 42.5827V38.966C20.293 38.2341 20.4816 37.5615 20.8587 36.9484C21.2359 36.3353 21.7362 35.8669 22.3596 35.5431C23.6944 34.8757 25.0506 34.3754 26.4284 34.0422C27.8062 33.7089 29.2055 33.5419 30.6263 33.541C32.0471 33.5402 33.4464 33.7072 34.8242 34.0422C36.202 34.3772 37.5582 34.8775 38.893 35.5431C39.5173 35.866 40.018 36.3345 40.3952 36.9484C40.7723 37.5624 40.9605 38.2349 40.9596 38.966V42.5827H20.293Z" fill="white"/>
<defs>
<filter id="filter0_d_3783_4953" x="0.5" y="0.666015" width="69" height="66" filterUnits="userSpaceOnUse" color-interpolation-filters="sRGB">
<feFlood flood-opacity="0" result="BackgroundImageFix"/>
<feColorMatrix in="SourceAlpha" type="matrix" values="0 0 0 0 0 0 0 0 0 0 0 0 0 0 0 0 0 0 127 0" result="hardAlpha"/>
<feOffset dy="3.5"/>
<feGaussianBlur stdDeviation="2.75"/>
<feColorMatrix type="matrix" values="0 0 0 0 0 0 0 0 0 0 0 0 0 0 0 0 0 0 0.02 0"/>
<feBlend mode="normal" in2="BackgroundImageFix" result="effect1_dropShadow_3783_4953"/>
<feBlend mode="normal" in="SourceGraphic" in2="effect1_dropShadow_3783_4953" result="shape"/>
</filter>
</defs>
</svg>
