<svg width="70" height="67" viewBox="0 0 70 67" fill="none" xmlns="http://www.w3.org/2000/svg">
<g filter="url(#filter0_d_3104_3683)">
<rect x="6" y="2.5" width="58" height="55" rx="12" fill="#C1BE0A"/>
</g>
<path d="M36.4722 21.3534C37.5635 22.2441 38.6085 23.19 39.6032 24.1873C40.6001 25.1821 41.5456 26.2271 42.4358 27.3183C43.1165 26.2927 43.7122 25.2131 44.217 24.0905C44.8035 22.7562 45.0967 21.6182 45.1341 20.7347C45.1716 19.8538 44.9533 19.3668 44.6872 19.102C44.4211 18.8372 43.9355 18.619 43.0545 18.6564C42.1723 18.6926 41.0344 18.9858 39.6988 19.5735C38.5769 20.0785 37.4978 20.6738 36.4722 21.3534ZM34.2919 19.7091C35.7941 18.6629 37.2705 17.8194 38.6577 17.2085C40.1664 16.5458 41.6311 16.1299 42.946 16.0744C44.2635 16.0201 45.5655 16.3262 46.5149 17.2756C47.4643 18.225 47.7704 19.527 47.7162 20.8432C47.6593 22.1581 47.2447 23.6242 46.5808 25.1315C45.9711 26.5188 45.1264 27.9952 44.0814 29.4974C45.1277 31.0009 45.9711 32.4772 46.5821 33.8658C47.2447 35.3732 47.6606 36.8392 47.7162 38.1541C47.7704 39.469 47.4643 40.7723 46.5149 41.7217C45.5655 42.6711 44.2635 42.9772 42.9473 42.923C41.6324 42.8674 40.1664 42.4515 38.659 41.7876C37.2717 41.1779 35.7941 40.3332 34.2919 39.2869C32.7897 40.3332 31.312 41.1779 29.9247 41.7876C28.4174 42.4515 26.9513 42.8661 25.6364 42.9217C24.3202 42.9772 23.0169 42.6711 22.0688 41.7204C21.1195 40.7723 20.812 39.469 20.8676 38.1528C20.9231 36.8392 21.339 35.3732 22.0017 33.8645C22.6126 32.4772 23.4574 31.0009 24.5023 29.4987C23.4574 27.9952 22.6126 26.5188 22.003 25.1315C21.339 23.6242 20.9244 22.1581 20.8689 20.8432C20.8133 19.527 21.1195 18.225 22.0701 17.2756C23.0182 16.3262 24.3215 16.0201 25.6377 16.0744C26.9513 16.1299 28.4174 16.5458 29.926 17.2085C31.312 17.8194 32.7897 18.6642 34.2919 19.7091ZM26.1479 27.317C27.0378 26.2263 27.9828 25.1817 28.9792 24.1873C29.9744 23.1899 31.0198 22.244 32.1115 21.3534C31.0862 20.6733 30.0071 20.078 28.885 19.5735C27.5494 18.9858 26.4114 18.6926 25.5292 18.6564C24.6483 18.619 24.16 18.8372 23.8952 19.102C23.6305 19.3668 23.4122 19.8538 23.4496 20.7347C23.4871 21.6182 23.7803 22.7562 24.3667 24.0905C24.8716 25.2131 25.4673 26.2914 26.1479 27.317ZM27.7134 29.4987C28.6737 30.7217 29.7068 31.8859 30.807 32.9849C31.9055 34.085 33.0692 35.1181 34.2919 36.0784C35.5145 35.1181 36.6783 34.085 37.7768 32.9849C38.877 31.8859 39.91 30.7217 40.8703 29.4987C39.91 28.2765 38.8769 27.1131 37.7768 26.015C36.6783 24.9144 35.5146 23.881 34.2919 22.9202C33.0688 23.8805 31.9046 24.9135 30.8057 26.0137C29.7055 27.1119 28.6725 28.2752 27.7121 29.4974M26.1466 31.6777C25.4655 32.7037 24.8693 33.7837 24.3641 34.9069C23.7777 36.2412 23.4858 37.3791 23.447 38.2613C23.4109 39.1422 23.6279 39.6305 23.894 39.8953C24.16 40.1601 24.6457 40.3784 25.5266 40.3409C26.4088 40.3035 27.5481 40.0102 28.8824 39.4238C30.0055 38.9186 31.0855 38.3225 32.1115 37.6413C31.0199 36.7515 29.9744 35.8065 28.9792 34.81C27.9823 33.8148 27.0368 32.7694 26.1466 31.6777ZM36.4709 37.6426C37.4966 38.3233 38.5761 38.919 39.6988 39.4238C41.0331 40.0102 42.1723 40.3035 43.0545 40.3409C43.9367 40.3784 44.4224 40.1601 44.6872 39.8953C44.952 39.6292 45.1703 39.1422 45.1328 38.2613C45.0967 37.3791 44.8035 36.2412 44.2157 34.9056C43.7109 33.7829 43.1152 32.7034 42.4345 31.6777C41.5443 32.7694 40.5989 33.8148 39.6019 34.81C38.6072 35.8069 37.5622 36.7524 36.4709 37.6426ZM33.2082 28.2083H35.7967V30.7968H33.2082V28.2083Z" fill="white"/>
<defs>
<filter id="filter0_d_3104_3683" x="0.5" y="0.5" width="69" height="66" filterUnits="userSpaceOnUse" color-interpolation-filters="sRGB">
<feFlood flood-opacity="0" result="BackgroundImageFix"/>
<feColorMatrix in="SourceAlpha" type="matrix" values="0 0 0 0 0 0 0 0 0 0 0 0 0 0 0 0 0 0 127 0" result="hardAlpha"/>
<feOffset dy="3.5"/>
<feGaussianBlur stdDeviation="2.75"/>
<feColorMatrix type="matrix" values="0 0 0 0 0 0 0 0 0 0 0 0 0 0 0 0 0 0 0.02 0"/>
<feBlend mode="normal" in2="BackgroundImageFix" result="effect1_dropShadow_3104_3683"/>
<feBlend mode="normal" in="SourceGraphic" in2="effect1_dropShadow_3104_3683" result="shape"/>
</filter>
</defs>
</svg>
