<svg width="70" height="67" viewBox="0 0 70 67" fill="none" xmlns="http://www.w3.org/2000/svg">
<g filter="url(#filter0_d_4050_2741)">
<rect x="6" y="2.5" width="58" height="55" rx="12" fill="#9333EA"/>
</g>
<path d="M34.5 35.9587C34.866 35.9587 35.173 35.8347 35.421 35.5867C35.669 35.3387 35.7925 35.0321 35.7917 34.667C35.7908 34.3019 35.6668 33.9953 35.4197 33.7473C35.1725 33.4993 34.866 33.3753 34.5 33.3753C34.134 33.3753 33.8275 33.4993 33.5803 33.7473C33.3332 33.9953 33.2092 34.3019 33.2083 34.667C33.2075 35.0321 33.3315 35.3391 33.5803 35.5879C33.8292 35.8368 34.1357 35.9604 34.5 35.9587ZM33.2083 30.792H35.7917V23.042H33.2083V30.792ZM25.4583 41.1253C24.7479 41.1253 24.14 40.8726 23.6345 40.3671C23.129 39.8616 22.8759 39.2533 22.875 38.542V20.4587C22.875 19.7482 23.1282 19.1403 23.6345 18.6348C24.1408 18.1294 24.7488 17.8762 25.4583 17.8753H30.8833C31.1632 17.1003 31.6316 16.476 32.2887 16.0024C32.9457 15.5288 33.6828 15.292 34.5 15.292C35.3172 15.292 36.0547 15.5288 36.7126 16.0024C37.3705 16.476 37.8385 17.1003 38.1167 17.8753H43.5417C44.2521 17.8753 44.8605 18.1285 45.3668 18.6348C45.8731 19.1412 46.1259 19.7491 46.125 20.4587V38.542C46.125 39.2524 45.8723 39.8608 45.3668 40.3671C44.8613 40.8734 44.2529 41.1262 43.5417 41.1253H25.4583ZM25.4583 38.542H43.5417V20.4587H25.4583V38.542ZM34.5 19.4899C34.7799 19.4899 35.0115 19.3982 35.1949 19.2148C35.3783 19.0314 35.4696 18.8002 35.4688 18.5212C35.4679 18.2422 35.3762 18.011 35.1936 17.8275C35.0111 17.6441 34.7799 17.5524 34.5 17.5524C34.2201 17.5524 33.9889 17.6441 33.8064 17.8275C33.6238 18.011 33.5321 18.2422 33.5312 18.5212C33.5304 18.8002 33.6221 19.0318 33.8064 19.2161C33.9907 19.4004 34.2219 19.4916 34.5 19.4899Z" fill="white"/>
<defs>
<filter id="filter0_d_4050_2741" x="0.5" y="0.5" width="69" height="66" filterUnits="userSpaceOnUse" color-interpolation-filters="sRGB">
<feFlood flood-opacity="0" result="BackgroundImageFix"/>
<feColorMatrix in="SourceAlpha" type="matrix" values="0 0 0 0 0 0 0 0 0 0 0 0 0 0 0 0 0 0 127 0" result="hardAlpha"/>
<feOffset dy="3.5"/>
<feGaussianBlur stdDeviation="2.75"/>
<feColorMatrix type="matrix" values="0 0 0 0 0 0 0 0 0 0 0 0 0 0 0 0 0 0 0.02 0"/>
<feBlend mode="normal" in2="BackgroundImageFix" result="effect1_dropShadow_4050_2741"/>
<feBlend mode="normal" in="SourceGraphic" in2="effect1_dropShadow_4050_2741" result="shape"/>
</filter>
</defs>
</svg>
