<svg width="52" height="52" viewBox="0 0 52 52" fill="none" xmlns="http://www.w3.org/2000/svg">
<g filter="url(#filter0_d_3783_4975)">
<rect x="6" y="2.78906" width="40" height="40" rx="12" fill="#9333EA"/>
</g>
<path d="M26.2358 27.1211C26.502 27.1211 26.7252 27.0309 26.9056 26.8506C27.0859 26.6702 27.1758 26.4473 27.1752 26.1817C27.1746 25.9162 27.0844 25.6932 26.9046 25.5129C26.7249 25.3325 26.502 25.2423 26.2358 25.2423C25.9696 25.2423 25.7467 25.3325 25.5669 25.5129C25.3872 25.6932 25.297 25.9162 25.2964 26.1817C25.2958 26.4473 25.386 26.6705 25.5669 26.8515C25.7479 27.0325 25.9709 27.1224 26.2358 27.1211ZM25.2964 23.3635H27.1752V17.7272H25.2964V23.3635ZM19.66 30.8787C19.1434 30.8787 18.7012 30.6949 18.3336 30.3273C17.966 29.9597 17.7819 29.5172 17.7812 28.9999V15.8484C17.7812 15.3317 17.9654 14.8896 18.3336 14.522C18.7019 14.1544 19.144 13.9702 19.66 13.9696H23.6055C23.809 13.406 24.1497 12.9519 24.6276 12.6075C25.1054 12.263 25.6415 12.0908 26.2358 12.0908C26.8301 12.0908 27.3665 12.263 27.845 12.6075C28.3234 12.9519 28.6638 13.406 28.8661 13.9696H32.8116C33.3282 13.9696 33.7707 14.1537 34.1389 14.522C34.5072 14.8902 34.691 15.3324 34.6903 15.8484V28.9999C34.6903 29.5166 34.5065 29.959 34.1389 30.3273C33.7713 30.6955 33.3288 30.8793 32.8116 30.8787H19.66ZM19.66 28.9999H32.8116V15.8484H19.66V28.9999ZM26.2358 15.1439C26.4393 15.1439 26.6078 15.0772 26.7412 14.9438C26.8746 14.8104 26.941 14.6422 26.9403 14.4393C26.9397 14.2364 26.873 14.0682 26.7402 13.9349C26.6075 13.8015 26.4393 13.7348 26.2358 13.7348C26.0323 13.7348 25.8641 13.8015 25.7313 13.9349C25.5986 14.0682 25.5319 14.2364 25.5312 14.4393C25.5306 14.6422 25.5973 14.8107 25.7313 14.9447C25.8654 15.0787 26.0335 15.1451 26.2358 15.1439Z" fill="white"/>
<defs>
<filter id="filter0_d_3783_4975" x="0.5" y="0.789062" width="51" height="51" filterUnits="userSpaceOnUse" color-interpolation-filters="sRGB">
<feFlood flood-opacity="0" result="BackgroundImageFix"/>
<feColorMatrix in="SourceAlpha" type="matrix" values="0 0 0 0 0 0 0 0 0 0 0 0 0 0 0 0 0 0 127 0" result="hardAlpha"/>
<feOffset dy="3.5"/>
<feGaussianBlur stdDeviation="2.75"/>
<feColorMatrix type="matrix" values="0 0 0 0 0 0 0 0 0 0 0 0 0 0 0 0 0 0 0.02 0"/>
<feBlend mode="normal" in2="BackgroundImageFix" result="effect1_dropShadow_3783_4975"/>
<feBlend mode="normal" in="SourceGraphic" in2="effect1_dropShadow_3783_4975" result="shape"/>
</filter>
</defs>
</svg>
