<svg width="70" height="67" viewBox="0 0 70 67" fill="none" xmlns="http://www.w3.org/2000/svg">
<g filter="url(#filter0_d_4050_2753)">
<rect x="6" y="2.5" width="58" height="55" rx="12" fill="#EB5B0C"/>
</g>
<path d="M21.582 42.4163V19.1663C21.582 18.4559 21.8352 17.848 22.3415 17.3425C22.8479 16.837 23.4558 16.5839 24.1654 16.583H44.832C45.5424 16.583 46.1508 16.8362 46.6572 17.3425C47.1635 17.8488 47.4162 18.4568 47.4154 19.1663V34.6663C47.4154 35.3768 47.1626 35.9851 46.6572 36.4915C46.1517 36.9978 45.5433 37.2505 44.832 37.2497H26.7487L21.582 42.4163ZM34.4987 33.3747C34.8647 33.3747 35.1717 33.2507 35.4197 33.0027C35.6677 32.7547 35.7912 32.4481 35.7904 32.083C35.7895 31.7179 35.6655 31.4113 35.4184 31.1633C35.1712 30.9153 34.8647 30.7913 34.4987 30.7913C34.1327 30.7913 33.8262 30.9153 33.579 31.1633C33.3319 31.4113 33.2079 31.7179 33.207 32.083C33.2062 32.4481 33.3302 32.7551 33.579 33.004C33.8279 33.2528 34.1344 33.3764 34.4987 33.3747ZM33.207 28.208H35.7904V20.458H33.207V28.208Z" fill="white"/>
<defs>
<filter id="filter0_d_4050_2753" x="0.5" y="0.5" width="69" height="66" filterUnits="userSpaceOnUse" color-interpolation-filters="sRGB">
<feFlood flood-opacity="0" result="BackgroundImageFix"/>
<feColorMatrix in="SourceAlpha" type="matrix" values="0 0 0 0 0 0 0 0 0 0 0 0 0 0 0 0 0 0 127 0" result="hardAlpha"/>
<feOffset dy="3.5"/>
<feGaussianBlur stdDeviation="2.75"/>
<feColorMatrix type="matrix" values="0 0 0 0 0 0 0 0 0 0 0 0 0 0 0 0 0 0 0.02 0"/>
<feBlend mode="normal" in2="BackgroundImageFix" result="effect1_dropShadow_4050_2753"/>
<feBlend mode="normal" in="SourceGraphic" in2="effect1_dropShadow_4050_2753" result="shape"/>
</filter>
</defs>
</svg>
