<svg width="20" height="20" viewBox="0 0 20 20" fill="none" xmlns="http://www.w3.org/2000/svg">
<g clip-path="url(#clip0_1666_1127)">
<path d="M3.54167 0.5H16.4583C18.4167 0.5 20 2.08333 20 4.04167V16.4583C20 18.4167 18.4167 20 16.4583 20H3.54167C1.58333 20 0 18.4167 0 16.4583V4.04167C0 2.08333 1.58333 0.5 3.54167 0.5Z" fill="#006FCC"/>
<path d="M12.5995 6.39988C13.6795 6.86141 14.8942 6.89714 15.9995 6.49988M6.49952 15.9999C6.89641 14.8911 6.8607 13.6735 6.39952 12.5899C6.03853 11.7271 5.94087 10.7768 6.11881 9.85858C6.29675 8.94039 6.74235 8.09537 7.39952 7.42988C8.07318 6.76318 8.92915 6.31084 9.85952 6.12988" stroke="white" stroke-linecap="round" stroke-linejoin="round"/>
<path d="M9.1 12.87C10.0351 12.6881 10.8949 12.2321 11.57 11.56M11.57 11.56C12.2283 10.8952 12.6747 10.0502 12.8527 9.13168C13.0307 8.2132 12.9323 7.26257 12.57 6.4C12.1182 5.31616 12.0932 4.10152 12.5 3M11.57 11.56L7.44 7.43M3 12.5C4.10575 12.1009 5.32236 12.1402 6.4 12.61" stroke="white" stroke-linecap="round" stroke-linejoin="round"/>
</g>
<defs>
<clipPath id="clip0_1666_1127">
<rect width="20" height="19.5" fill="white" transform="translate(0 0.5)"/>
</clipPath>
</defs>
</svg>
