<svg width="20" height="20" viewBox="0 0 20 20" fill="none" xmlns="http://www.w3.org/2000/svg">
<g clip-path="url(#clip0_1666_1106)">
<path d="M3.54167 0.5H16.4583C18.4167 0.5 20 2.08333 20 4.04167V16.4583C20 18.4167 18.4167 20 16.4583 20H3.54167C1.58333 20 0 18.4167 0 16.4583V4.04167C0 2.08333 1.58333 0.5 3.54167 0.5Z" fill="#006FCC"/>
<g clip-path="url(#clip1_1666_1106)">
<path d="M14.0802 16.2716L11.7505 13.5145V8.68139H12.0419C12.2836 8.68139 12.4794 8.48561 12.4794 8.24389C12.4794 8.00217 12.2836 7.80639 12.0419 7.80639H11.313C11.0713 7.80639 10.8755 8.00217 10.8755 8.24389V13.6829C10.8755 13.7912 10.9157 13.8957 10.9884 13.976L12.7708 16.1272H7.22983L9.0122 13.976C9.08488 13.8957 9.12511 13.7912 9.12508 13.6829V8.2439C9.12508 8.00219 8.9293 7.8064 8.68758 7.8064H7.95869C7.71697 7.8064 7.52119 8.00219 7.52119 8.2439C7.52119 8.48562 7.71697 8.6814 7.95869 8.6814H8.25006V13.5145L5.92038 16.2716C5.86372 16.3344 5.82646 16.4123 5.81311 16.4958C5.79976 16.5794 5.81088 16.665 5.84513 16.7423C5.87949 16.8197 5.93556 16.8854 6.00654 16.9316C6.07752 16.9777 6.16036 17.0022 6.24502 17.0022H13.7556C13.8402 17.0022 13.9231 16.9777 13.9941 16.9316C14.065 16.8854 14.1211 16.8197 14.1555 16.7423C14.2255 16.5844 14.1962 16.3998 14.0802 16.2716V16.2716ZM9.5628 7.37064C10.0449 7.37064 10.4356 6.97973 10.4356 6.49783C10.4356 6.01636 10.0449 5.62547 9.5628 5.62547C9.08045 5.62547 8.68998 6.01636 8.68998 6.49783C8.68998 6.97973 9.08045 7.37064 9.5628 7.37064ZM12.4131 6.07192C13.2658 6.07192 13.957 5.38373 13.957 4.53498C13.957 3.68623 13.266 2.99805 12.4131 2.99805C11.5606 2.99805 10.8692 3.68623 10.8692 4.53498C10.8692 5.38373 11.5606 6.07192 12.4131 6.07192ZM12.4063 3.87041C12.7708 3.87041 13.0672 4.1655 13.0672 4.52841C13.0672 4.8911 12.7708 5.18641 12.4063 5.18641C12.0419 5.18641 11.7455 4.8911 11.7455 4.52841C11.7457 4.1655 12.0419 3.87041 12.4063 3.87041Z" fill="white"/>
</g>
</g>
<defs>
<clipPath id="clip0_1666_1106">
<rect width="20" height="19.5" fill="white" transform="translate(0 0.5)"/>
</clipPath>
<clipPath id="clip1_1666_1106">
<rect width="14" height="14" fill="white" transform="translate(3 3)"/>
</clipPath>
</defs>
</svg>
