<svg width="21" height="20" viewBox="0 0 21 20" fill="none" xmlns="http://www.w3.org/2000/svg">
<g clip-path="url(#clip0_1666_1075)">
<path d="M4.04167 0.5H16.9583C18.9167 0.5 20.5 2.08333 20.5 4.04167V16.4583C20.5 18.4167 18.9167 20 16.9583 20H4.04167C2.08333 20 0.5 18.4167 0.5 16.4583V4.04167C0.5 2.08333 2.08333 0.5 4.04167 0.5Z" fill="#006FCC"/>
<g clip-path="url(#clip1_1666_1075)">
<path d="M13.4226 7.55383C12.8704 7.00064 12.2762 6.49097 11.6454 6.02938C12.0768 5.76868 12.5296 5.54492 12.9987 5.36049C13.1232 5.31383 13.2398 5.27883 13.3565 5.24383C13.4511 5.35836 13.5731 5.44726 13.7111 5.50237C13.8491 5.55747 13.9987 5.57702 14.1462 5.55921C14.2937 5.5414 14.4344 5.4868 14.5553 5.40044C14.6762 5.31407 14.7735 5.19871 14.8382 5.06494C15.1159 5.0898 15.378 5.20448 15.5848 5.3916C16.0476 5.85438 16.0593 6.78772 15.6237 7.95049C15.8143 8.20327 15.9893 8.45994 16.1487 8.72827C16.2148 8.57272 16.2848 8.42105 16.3393 8.26938C16.9109 6.77216 16.837 5.54716 16.1332 4.85494C15.7808 4.52174 15.3223 4.32345 14.8382 4.29494C14.7574 4.12653 14.6257 3.98779 14.4617 3.89833C14.2978 3.80888 14.1098 3.77324 13.9245 3.79646C13.7392 3.81968 13.5658 3.90058 13.429 4.02772C13.2922 4.15486 13.1988 4.32181 13.162 4.50494C13.0182 4.54772 12.8743 4.59049 12.7226 4.64883C12.1015 4.89402 11.5062 5.20015 10.9454 5.56272C10.384 5.19454 9.78735 4.88319 9.16426 4.63327C7.66704 4.06549 6.44204 4.13549 5.75371 4.83938C5.10815 5.48883 5.00315 6.56605 5.43093 7.89605C5.33329 8.0216 5.27123 8.17109 5.25123 8.32888C5.23123 8.48666 5.25404 8.64691 5.31726 8.79285C5.38049 8.93879 5.4818 9.06503 5.61059 9.15835C5.73938 9.25167 5.89089 9.30864 6.04926 9.32327C6.17371 9.56049 6.30982 9.79772 6.46149 10.031C6.10025 10.5927 5.79667 11.1895 5.55537 11.8122C4.98371 13.3055 5.0576 14.5344 5.76149 15.2227C5.97564 15.4229 6.22781 15.578 6.50303 15.6788C6.77826 15.7797 7.07093 15.8243 7.36371 15.8099C7.98496 15.79 8.59753 15.6583 9.17204 15.421C9.79451 15.1761 10.3911 14.87 10.9532 14.5072C11.5105 14.8773 12.1032 15.1913 12.7226 15.4444C13.1781 15.6234 13.6555 15.7411 14.142 15.7944C14.2275 15.976 14.3715 16.1236 14.5509 16.2135C14.7304 16.3034 14.9349 16.3303 15.1315 16.2899C15.3281 16.2495 15.5054 16.1441 15.6349 15.9908C15.7644 15.8374 15.8385 15.645 15.8454 15.4444C15.9486 15.3804 16.045 15.3062 16.1332 15.2227C16.837 14.5188 16.9109 13.3055 16.3393 11.8122C15.6684 10.2083 14.6757 8.75897 13.4226 7.55383ZM8.88815 14.7016C7.72149 15.1488 6.76871 15.141 6.30204 14.6705C5.83537 14.1999 5.82371 13.2627 6.27482 12.0883C6.458 11.6192 6.68045 11.1665 6.93982 10.7349C7.40275 11.3635 7.91234 11.9562 8.46426 12.5083C8.63149 12.6755 8.8026 12.8388 8.97371 12.9944C9.20704 12.8751 9.44426 12.739 9.68537 12.586C9.45982 12.3838 9.23426 12.1972 9.01649 11.9599C8.14121 11.0999 7.38993 10.1222 6.78426 9.05494C6.90589 8.92887 6.98764 8.76974 7.01928 8.59744C7.05092 8.42515 7.03105 8.24735 6.96214 8.08629C6.89324 7.92524 6.77837 7.78808 6.6319 7.69199C6.48543 7.5959 6.31388 7.54513 6.13871 7.54605C5.84704 6.57383 5.8976 5.79994 6.30593 5.3916C6.44975 5.26486 6.61732 5.16796 6.79891 5.10654C6.9805 5.04512 7.17248 5.02041 7.36371 5.03383C7.88848 5.05135 8.40596 5.16196 8.89204 5.36049C9.3612 5.54492 9.81392 5.76868 10.2454 6.02938C9.61457 6.49097 9.02039 7.00064 8.46815 7.55383C8.29704 7.72494 8.12982 7.90383 7.96649 8.08272C8.08341 8.32918 8.21322 8.56933 8.35537 8.80216C8.56537 8.56494 8.77926 8.3316 9.00871 8.10216C9.60697 7.50445 10.2577 6.96172 10.9532 6.48049C11.641 6.96378 12.2851 7.50641 12.8782 8.10216C13.4759 8.70043 14.0186 9.35119 14.4998 10.0466C14.0175 10.7411 13.4748 11.3918 12.8782 11.991C11.7464 13.1566 10.3887 14.079 8.88815 14.7016ZM15.5848 14.6666L15.5226 14.7172C15.4205 14.6306 15.3 14.5684 15.1703 14.5352C15.0406 14.5021 14.905 14.4989 14.7739 14.5259C14.6428 14.5529 14.5195 14.6093 14.4134 14.6909C14.3073 14.7726 14.2211 14.8773 14.1615 14.9972C13.7618 14.9457 13.3699 14.8451 12.9948 14.6977C12.5249 14.5151 12.072 14.2912 11.6415 14.0288C12.2723 13.5672 12.8665 13.0576 13.4187 12.5044C13.9729 11.9545 14.4826 11.3615 14.9432 10.731C15.2039 11.1625 15.4276 11.6152 15.612 12.0844C16.0554 13.2627 16.0554 14.2038 15.5848 14.6666Z" fill="white"/>
<path d="M11.2024 11.2918C11.902 11.1782 12.3771 10.519 12.2635 9.81937C12.15 9.11977 11.4908 8.64468 10.7912 8.75824C10.0916 8.87181 9.61647 9.53101 9.73004 10.2306C9.8436 10.9302 10.5028 11.4053 11.2024 11.2918Z" fill="white"/>
</g>
</g>
<defs>
<clipPath id="clip0_1666_1075">
<rect width="20" height="19.5" fill="white" transform="translate(0.5 0.5)"/>
</clipPath>
<clipPath id="clip1_1666_1075">
<rect width="14" height="14" fill="white" transform="translate(4 3)"/>
</clipPath>
</defs>
</svg>
